<?xml version="1.0" encoding="UTF-8" standalone="no"?><svg xmlns="http://www.w3.org/2000/svg" xmlns:xlink="http://www.w3.org/1999/xlink" contentScriptType="application/ecmascript" contentStyleType="text/css" height="835px" preserveAspectRatio="none" style="width:2834px;height:835px;" version="1.1" viewBox="0 0 2834 835" width="2834px" zoomAndPan="magnify"><defs><filter height="300%" id="fn7vq4wfr60ft" width="300%" x="-1" y="-1"><feGaussianBlur result="blurOut" stdDeviation="2.0"/><feColorMatrix in="blurOut" result="blurOut2" type="matrix" values="0 0 0 0 0 0 0 0 0 0 0 0 0 0 0 0 0 0 .4 0"/><feOffset dx="4.0" dy="4.0" in="blurOut2" result="blurOut3"/><feBlend in="SourceGraphic" in2="blurOut3" mode="normal"/></filter></defs><g><!--MD5=[173124a3a40fc9f81fe782892300b20c]
class EntitéDuMondeDeLaFormation--><rect codeLine="2" fill="#FEFECE" filter="url(#fn7vq4wfr60ft)" height="103.3438" id="EntitéDuMondeDeLaFormation" style="stroke:#A80036;stroke-width:1.5;" width="202" x="1020.5" y="14"/><ellipse cx="1035.5" cy="30" fill="#A9DCDF" rx="11" ry="11" style="stroke:#A80036;stroke-width:1.0;"/><path d="M1037.6875,31.7656 L1033.5469,31.7656 L1033.125,32.7969 L1033.5469,32.7969 Q1034.1563,32.7969 1034.4219,33.0313 Q1034.6875,33.2656 1034.6875,33.6563 Q1034.6875,34.0313 1034.4219,34.2656 Q1034.1563,34.5 1033.5469,34.5 L1031.25,34.5 Q1030.6406,34.5 1030.3828,34.2656 Q1030.125,34.0313 1030.125,33.6406 Q1030.125,33.2656 1030.3984,33.0234 Q1030.6719,32.7813 1031.2969,32.7969 L1033.9688,26.1406 L1032.8594,26.1406 Q1032.25,26.1406 1031.9844,25.9063 Q1031.7188,25.6719 1031.7188,25.2813 Q1031.7188,24.9063 1031.9844,24.6719 Q1032.25,24.4375 1032.8594,24.4375 L1036.5313,24.4375 L1039.9219,32.7969 Q1040.5156,32.7969 1040.7031,32.9375 Q1041.0938,33.2031 1041.0938,33.6563 Q1041.0938,34.0313 1040.8359,34.2656 Q1040.5781,34.5 1039.9688,34.5 L1037.6719,34.5 Q1037.0625,34.5 1036.7969,34.2656 Q1036.5313,34.0313 1036.5313,33.6406 Q1036.5313,33.2656 1036.7969,33.0313 Q1037.0625,32.7969 1037.6719,32.7969 L1038.0938,32.7969 L1037.6875,31.7656 Z M1036.9688,30.0625 L1035.6094,26.6875 L1034.2344,30.0625 L1036.9688,30.0625 Z " fill="#000000"/><text fill="#000000" font-family="sans-serif" font-size="12" font-style="italic" lengthAdjust="spacing" textLength="170" x="1049.5" y="34.9102">EntitéDuMondeDeLaFormation</text><line style="stroke:#A80036;stroke-width:1.5;" x1="1021.5" x2="1221.5" y1="46" y2="46"/><text fill="#000000" font-family="sans-serif" font-size="11" lengthAdjust="spacing" textLength="88" x="1026.5" y="61.4189">MLR_String Libellé</text><text fill="#000000" font-family="sans-serif" font-size="11" lengthAdjust="spacing" textLength="90" x="1026.5" y="75.2549">MLR_Date DateMaj</text><text fill="#000000" font-family="sans-serif" font-size="11" lengthAdjust="spacing" textLength="83" x="1026.5" y="89.0908">MLR_String Code</text><text fill="#000000" font-family="sans-serif" font-size="11" lengthAdjust="spacing" textLength="93" x="1026.5" y="102.9268">Object Contributeur</text><line style="stroke:#A80036;stroke-width:1.5;" x1="1021.5" x2="1221.5" y1="109.3438" y2="109.3438"/><!--MD5=[99575855b2694fcd7a8ca21ebbd9e9ac]
class CertificatBadgeDiplome--><rect codeLine="9" fill="#FEFECE" filter="url(#fn7vq4wfr60ft)" height="89.5078" id="CertificatBadgeDiplome" style="stroke:#A80036;stroke-width:1.5;" width="189" x="7" y="225.5"/><ellipse cx="33.7" cy="241.5" fill="#ADD1B2" rx="11" ry="11" style="stroke:#A80036;stroke-width:1.0;"/><path d="M36.4656,237.375 Q36.6219,237.1563 36.8094,237.0469 Q36.9969,236.9375 37.2156,236.9375 Q37.5906,236.9375 37.825,237.1953 Q38.0594,237.4531 38.0594,238.0625 L38.0594,239.5156 Q38.0594,240.125 37.825,240.3906 Q37.5906,240.6563 37.2156,240.6563 Q36.8719,240.6563 36.6688,240.4531 Q36.4656,240.2656 36.3563,239.75 Q36.3094,239.3906 36.1219,239.2031 Q35.7938,238.8281 35.1844,238.6094 Q34.575,238.3906 33.95,238.3906 Q33.1844,238.3906 32.5516,238.7188 Q31.9188,239.0469 31.4266,239.7969 Q30.9344,240.5469 30.9344,241.5781 L30.9344,242.6719 Q30.9344,243.9063 31.825,244.7266 Q32.7156,245.5469 34.3094,245.5469 Q35.2469,245.5469 35.9031,245.2969 Q36.2938,245.1406 36.7156,244.7031 Q36.9813,244.4375 37.1297,244.3594 Q37.2781,244.2813 37.4813,244.2813 Q37.8094,244.2813 38.0672,244.5391 Q38.325,244.7969 38.325,245.1406 Q38.325,245.4844 37.9813,245.8906 Q37.4813,246.4688 36.6844,246.7969 Q35.6063,247.25 34.3094,247.25 Q32.7938,247.25 31.5906,246.625 Q30.6063,246.125 29.9188,245.0547 Q29.2313,243.9844 29.2313,242.7031 L29.2313,241.5469 Q29.2313,240.2188 29.8484,239.0703 Q30.4656,237.9219 31.5594,237.3047 Q32.6531,236.6875 33.8875,236.6875 Q34.6219,236.6875 35.2703,236.8516 Q35.9188,237.0156 36.4656,237.375 Z " fill="#000000"/><text fill="#000000" font-family="sans-serif" font-size="12" lengthAdjust="spacing" textLength="131" x="50.3" y="246.4102">CertificatBadgeDiplome</text><line style="stroke:#A80036;stroke-width:1.5;" x1="8" x2="195" y1="257.5" y2="257.5"/><text fill="#000000" font-family="sans-serif" font-size="11" lengthAdjust="spacing" textLength="112" x="13" y="272.9189">MLR_String Description</text><text fill="#000000" font-family="sans-serif" font-size="11" lengthAdjust="spacing" textLength="169" x="13" y="286.7549">NiveauDeCertification APourNiveau</text><text fill="#000000" font-family="sans-serif" font-size="11" lengthAdjust="spacing" textLength="177" x="13" y="300.5908">Certification EstAutoriseADelivrerPar</text><line style="stroke:#A80036;stroke-width:1.5;" x1="8" x2="195" y1="307.0078" y2="307.0078"/><!--MD5=[586d3716e2308e33ff6094d988a87716]
class Certification--><rect codeLine="15" fill="#FEFECE" filter="url(#fn7vq4wfr60ft)" height="75.6719" id="Certification" style="stroke:#A80036;stroke-width:1.5;" width="162" x="231.5" y="232.5"/><ellipse cx="275.75" cy="248.5" fill="#ADD1B2" rx="11" ry="11" style="stroke:#A80036;stroke-width:1.0;"/><path d="M278.5156,244.375 Q278.6719,244.1563 278.8594,244.0469 Q279.0469,243.9375 279.2656,243.9375 Q279.6406,243.9375 279.875,244.1953 Q280.1094,244.4531 280.1094,245.0625 L280.1094,246.5156 Q280.1094,247.125 279.875,247.3906 Q279.6406,247.6563 279.2656,247.6563 Q278.9219,247.6563 278.7188,247.4531 Q278.5156,247.2656 278.4063,246.75 Q278.3594,246.3906 278.1719,246.2031 Q277.8438,245.8281 277.2344,245.6094 Q276.625,245.3906 276,245.3906 Q275.2344,245.3906 274.6016,245.7188 Q273.9688,246.0469 273.4766,246.7969 Q272.9844,247.5469 272.9844,248.5781 L272.9844,249.6719 Q272.9844,250.9063 273.875,251.7266 Q274.7656,252.5469 276.3594,252.5469 Q277.2969,252.5469 277.9531,252.2969 Q278.3438,252.1406 278.7656,251.7031 Q279.0313,251.4375 279.1797,251.3594 Q279.3281,251.2813 279.5313,251.2813 Q279.8594,251.2813 280.1172,251.5391 Q280.375,251.7969 280.375,252.1406 Q280.375,252.4844 280.0313,252.8906 Q279.5313,253.4688 278.7344,253.7969 Q277.6563,254.25 276.3594,254.25 Q274.8438,254.25 273.6406,253.625 Q272.6563,253.125 271.9688,252.0547 Q271.2813,250.9844 271.2813,249.7031 L271.2813,248.5469 Q271.2813,247.2188 271.8984,246.0703 Q272.5156,244.9219 273.6094,244.3047 Q274.7031,243.6875 275.9375,243.6875 Q276.6719,243.6875 277.3203,243.8516 Q277.9688,244.0156 278.5156,244.375 Z " fill="#000000"/><text fill="#000000" font-family="sans-serif" font-size="12" lengthAdjust="spacing" textLength="65" x="296.25" y="253.4102">Certification</text><line style="stroke:#A80036;stroke-width:1.5;" x1="232.5" x2="392.5" y1="264.5" y2="264.5"/><text fill="#000000" font-family="sans-serif" font-size="11" lengthAdjust="spacing" textLength="125" x="237.5" y="279.9189">MLR_Date DateHabilitation</text><text fill="#000000" font-family="sans-serif" font-size="11" lengthAdjust="spacing" textLength="150" x="237.5" y="293.7549">MLR_Duration DuréeHabilitation</text><line style="stroke:#A80036;stroke-width:1.5;" x1="232.5" x2="392.5" y1="300.1719" y2="300.1719"/><!--MD5=[66c3db416ac67e1608c966df78ad4acd]
class NiveauDeCertification--><rect codeLine="20" fill="#FEFECE" filter="url(#fn7vq4wfr60ft)" height="75.6719" id="NiveauDeCertification" style="stroke:#A80036;stroke-width:1.5;" width="151" x="429" y="232.5"/><ellipse cx="444" cy="248.5" fill="#ADD1B2" rx="11" ry="11" style="stroke:#A80036;stroke-width:1.0;"/><path d="M446.7656,244.375 Q446.9219,244.1563 447.1094,244.0469 Q447.2969,243.9375 447.5156,243.9375 Q447.8906,243.9375 448.125,244.1953 Q448.3594,244.4531 448.3594,245.0625 L448.3594,246.5156 Q448.3594,247.125 448.125,247.3906 Q447.8906,247.6563 447.5156,247.6563 Q447.1719,247.6563 446.9688,247.4531 Q446.7656,247.2656 446.6563,246.75 Q446.6094,246.3906 446.4219,246.2031 Q446.0938,245.8281 445.4844,245.6094 Q444.875,245.3906 444.25,245.3906 Q443.4844,245.3906 442.8516,245.7188 Q442.2188,246.0469 441.7266,246.7969 Q441.2344,247.5469 441.2344,248.5781 L441.2344,249.6719 Q441.2344,250.9063 442.125,251.7266 Q443.0156,252.5469 444.6094,252.5469 Q445.5469,252.5469 446.2031,252.2969 Q446.5938,252.1406 447.0156,251.7031 Q447.2813,251.4375 447.4297,251.3594 Q447.5781,251.2813 447.7813,251.2813 Q448.1094,251.2813 448.3672,251.5391 Q448.625,251.7969 448.625,252.1406 Q448.625,252.4844 448.2813,252.8906 Q447.7813,253.4688 446.9844,253.7969 Q445.9063,254.25 444.6094,254.25 Q443.0938,254.25 441.8906,253.625 Q440.9063,253.125 440.2188,252.0547 Q439.5313,250.9844 439.5313,249.7031 L439.5313,248.5469 Q439.5313,247.2188 440.1484,246.0703 Q440.7656,244.9219 441.8594,244.3047 Q442.9531,243.6875 444.1875,243.6875 Q444.9219,243.6875 445.5703,243.8516 Q446.2188,244.0156 446.7656,244.375 Z " fill="#000000"/><text fill="#000000" font-family="sans-serif" font-size="12" lengthAdjust="spacing" textLength="119" x="458" y="253.4102">NiveauDeCertification</text><line style="stroke:#A80036;stroke-width:1.5;" x1="430" x2="579" y1="264.5" y2="264.5"/><text fill="#000000" font-family="sans-serif" font-size="11" lengthAdjust="spacing" textLength="112" x="435" y="279.9189">Nombre_Naturel Valeur</text><text fill="#000000" font-family="sans-serif" font-size="11" lengthAdjust="spacing" textLength="125" x="435" y="293.7549">IRI SystemeDeCodification</text><line style="stroke:#A80036;stroke-width:1.5;" x1="430" x2="579" y1="300.1719" y2="300.1719"/><!--MD5=[d221de97ee37fc5cf26503a381023d24]
class OffreDeFormation--><rect codeLine="25" fill="#FEFECE" filter="url(#fn7vq4wfr60ft)" height="186.3594" id="OffreDeFormation" style="stroke:#A80036;stroke-width:1.5;" width="192" x="840.5" y="417"/><ellipse cx="883.4" cy="433" fill="#ADD1B2" rx="11" ry="11" style="stroke:#A80036;stroke-width:1.0;"/><path d="M886.1656,428.875 Q886.3219,428.6563 886.5094,428.5469 Q886.6969,428.4375 886.9156,428.4375 Q887.2906,428.4375 887.525,428.6953 Q887.7594,428.9531 887.7594,429.5625 L887.7594,431.0156 Q887.7594,431.625 887.525,431.8906 Q887.2906,432.1563 886.9156,432.1563 Q886.5719,432.1563 886.3688,431.9531 Q886.1656,431.7656 886.0563,431.25 Q886.0094,430.8906 885.8219,430.7031 Q885.4938,430.3281 884.8844,430.1094 Q884.275,429.8906 883.65,429.8906 Q882.8844,429.8906 882.2516,430.2188 Q881.6188,430.5469 881.1266,431.2969 Q880.6344,432.0469 880.6344,433.0781 L880.6344,434.1719 Q880.6344,435.4063 881.525,436.2266 Q882.4156,437.0469 884.0094,437.0469 Q884.9469,437.0469 885.6031,436.7969 Q885.9938,436.6406 886.4156,436.2031 Q886.6813,435.9375 886.8297,435.8594 Q886.9781,435.7813 887.1813,435.7813 Q887.5094,435.7813 887.7672,436.0391 Q888.025,436.2969 888.025,436.6406 Q888.025,436.9844 887.6813,437.3906 Q887.1813,437.9688 886.3844,438.2969 Q885.3063,438.75 884.0094,438.75 Q882.4938,438.75 881.2906,438.125 Q880.3063,437.625 879.6188,436.5547 Q878.9313,435.4844 878.9313,434.2031 L878.9313,433.0469 Q878.9313,431.7188 879.5484,430.5703 Q880.1656,429.4219 881.2594,428.8047 Q882.3531,428.1875 883.5875,428.1875 Q884.3219,428.1875 884.9703,428.3516 Q885.6188,428.5156 886.1656,428.875 Z " fill="#000000"/><text fill="#000000" font-family="sans-serif" font-size="12" lengthAdjust="spacing" textLength="98" x="903.6" y="437.9102">OffreDeFormation</text><line style="stroke:#A80036;stroke-width:1.5;" x1="841.5" x2="1031.5" y1="449" y2="449"/><text fill="#000000" font-family="sans-serif" font-size="11" lengthAdjust="spacing" textLength="85" x="846.5" y="464.4189">Vocabulaire Type</text><text fill="#000000" font-family="sans-serif" font-size="11" lengthAdjust="spacing" textLength="86" x="846.5" y="478.2549">MLR_String Stage</text><text fill="#000000" font-family="sans-serif" font-size="11" lengthAdjust="spacing" textLength="112" x="846.5" y="492.0908">Vocabulaire MétierVisé</text><text fill="#000000" font-family="sans-serif" font-size="11" lengthAdjust="spacing" textLength="108" x="846.5" y="505.9268">MLR_String Acronyme</text><text fill="#000000" font-family="sans-serif" font-size="11" lengthAdjust="spacing" textLength="67" x="846.5" y="519.7627">IRI Ressource</text><text fill="#000000" font-family="sans-serif" font-size="11" lengthAdjust="spacing" textLength="180" x="846.5" y="533.5986">NiveauDeCertification NiveauDeSortie</text><text fill="#000000" font-family="sans-serif" font-size="11" lengthAdjust="spacing" textLength="149" x="846.5" y="547.4346">OffreDeFormation SeDéclineEn</text><text fill="#000000" font-family="sans-serif" font-size="11" lengthAdjust="spacing" textLength="141" x="846.5" y="561.2705">OffreDeFormation AÉvoluéEn</text><text fill="#000000" font-family="sans-serif" font-size="11" lengthAdjust="spacing" textLength="169" x="846.5" y="575.1064">ConditionDAccès ConditionDAccès</text><text fill="#000000" font-family="sans-serif" font-size="11" lengthAdjust="spacing" textLength="166" x="846.5" y="588.9424">ActionDeFormation EstMatérialisée</text><line style="stroke:#A80036;stroke-width:1.5;" x1="841.5" x2="1031.5" y1="595.3594" y2="595.3594"/><!--MD5=[3b1adb4bf18e17e2b7614a68973bac29]
class ConditionDAccès--><rect codeLine="38" fill="#FEFECE" filter="url(#fn7vq4wfr60ft)" height="75.6719" id="ConditionDAccès" style="stroke:#A80036;stroke-width:1.5;" width="142" x="615.5" y="232.5"/><ellipse cx="637.25" cy="248.5" fill="#ADD1B2" rx="11" ry="11" style="stroke:#A80036;stroke-width:1.0;"/><path d="M640.0156,244.375 Q640.1719,244.1563 640.3594,244.0469 Q640.5469,243.9375 640.7656,243.9375 Q641.1406,243.9375 641.375,244.1953 Q641.6094,244.4531 641.6094,245.0625 L641.6094,246.5156 Q641.6094,247.125 641.375,247.3906 Q641.1406,247.6563 640.7656,247.6563 Q640.4219,247.6563 640.2188,247.4531 Q640.0156,247.2656 639.9063,246.75 Q639.8594,246.3906 639.6719,246.2031 Q639.3438,245.8281 638.7344,245.6094 Q638.125,245.3906 637.5,245.3906 Q636.7344,245.3906 636.1016,245.7188 Q635.4688,246.0469 634.9766,246.7969 Q634.4844,247.5469 634.4844,248.5781 L634.4844,249.6719 Q634.4844,250.9063 635.375,251.7266 Q636.2656,252.5469 637.8594,252.5469 Q638.7969,252.5469 639.4531,252.2969 Q639.8438,252.1406 640.2656,251.7031 Q640.5313,251.4375 640.6797,251.3594 Q640.8281,251.2813 641.0313,251.2813 Q641.3594,251.2813 641.6172,251.5391 Q641.875,251.7969 641.875,252.1406 Q641.875,252.4844 641.5313,252.8906 Q641.0313,253.4688 640.2344,253.7969 Q639.1563,254.25 637.8594,254.25 Q636.3438,254.25 635.1406,253.625 Q634.1563,253.125 633.4688,252.0547 Q632.7813,250.9844 632.7813,249.7031 L632.7813,248.5469 Q632.7813,247.2188 633.3984,246.0703 Q634.0156,244.9219 635.1094,244.3047 Q636.2031,243.6875 637.4375,243.6875 Q638.1719,243.6875 638.8203,243.8516 Q639.4688,244.0156 640.0156,244.375 Z " fill="#000000"/><text fill="#000000" font-family="sans-serif" font-size="12" lengthAdjust="spacing" textLength="95" x="652.75" y="253.4102">ConditionDAccès</text><line style="stroke:#A80036;stroke-width:1.5;" x1="616.5" x2="756.5" y1="264.5" y2="264.5"/><text fill="#000000" font-family="sans-serif" font-size="11" lengthAdjust="spacing" textLength="80" x="621.5" y="279.9189">Object Prérequis</text><text fill="#000000" font-family="sans-serif" font-size="11" lengthAdjust="spacing" textLength="130" x="621.5" y="293.7549">Object ModalitéDeSélection</text><line style="stroke:#A80036;stroke-width:1.5;" x1="616.5" x2="756.5" y1="300.1719" y2="300.1719"/><!--MD5=[009e15508dd843038e566282846447b7]
class Prérequis--><rect codeLine="43" fill="#FEFECE" filter="url(#fn7vq4wfr60ft)" height="61.8359" id="Prérequis" style="stroke:#A80036;stroke-width:1.5;" width="124" x="1059.5" y="239.5"/><ellipse cx="1091.6" cy="255.5" fill="#ADD1B2" rx="11" ry="11" style="stroke:#A80036;stroke-width:1.0;"/><path d="M1094.3656,251.375 Q1094.5219,251.1563 1094.7094,251.0469 Q1094.8969,250.9375 1095.1156,250.9375 Q1095.4906,250.9375 1095.725,251.1953 Q1095.9594,251.4531 1095.9594,252.0625 L1095.9594,253.5156 Q1095.9594,254.125 1095.725,254.3906 Q1095.4906,254.6563 1095.1156,254.6563 Q1094.7719,254.6563 1094.5688,254.4531 Q1094.3656,254.2656 1094.2563,253.75 Q1094.2094,253.3906 1094.0219,253.2031 Q1093.6938,252.8281 1093.0844,252.6094 Q1092.475,252.3906 1091.85,252.3906 Q1091.0844,252.3906 1090.4516,252.7188 Q1089.8188,253.0469 1089.3266,253.7969 Q1088.8344,254.5469 1088.8344,255.5781 L1088.8344,256.6719 Q1088.8344,257.9063 1089.725,258.7266 Q1090.6156,259.5469 1092.2094,259.5469 Q1093.1469,259.5469 1093.8031,259.2969 Q1094.1938,259.1406 1094.6156,258.7031 Q1094.8813,258.4375 1095.0297,258.3594 Q1095.1781,258.2813 1095.3813,258.2813 Q1095.7094,258.2813 1095.9672,258.5391 Q1096.225,258.7969 1096.225,259.1406 Q1096.225,259.4844 1095.8813,259.8906 Q1095.3813,260.4688 1094.5844,260.7969 Q1093.5063,261.25 1092.2094,261.25 Q1090.6938,261.25 1089.4906,260.625 Q1088.5063,260.125 1087.8188,259.0547 Q1087.1313,257.9844 1087.1313,256.7031 L1087.1313,255.5469 Q1087.1313,254.2188 1087.7484,253.0703 Q1088.3656,251.9219 1089.4594,251.3047 Q1090.5531,250.6875 1091.7875,250.6875 Q1092.5219,250.6875 1093.1703,250.8516 Q1093.8188,251.0156 1094.3656,251.375 Z " fill="#000000"/><text fill="#000000" font-family="sans-serif" font-size="12" lengthAdjust="spacing" textLength="54" x="1109.4" y="260.4102">Prérequis</text><line style="stroke:#A80036;stroke-width:1.5;" x1="1060.5" x2="1182.5" y1="271.5" y2="271.5"/><text fill="#000000" font-family="sans-serif" font-size="11" lengthAdjust="spacing" textLength="112" x="1065.5" y="286.9189">MLR_String Description</text><line style="stroke:#A80036;stroke-width:1.5;" x1="1060.5" x2="1182.5" y1="293.3359" y2="293.3359"/><!--MD5=[dab53cd4d93dec1162561b5ae0022c4c]
class ModalitéDeSélection--><rect codeLine="47" fill="#FEFECE" filter="url(#fn7vq4wfr60ft)" height="61.8359" id="ModalitéDeSélection" style="stroke:#A80036;stroke-width:1.5;" width="145" x="1219" y="239.5"/><ellipse cx="1234" cy="255.5" fill="#ADD1B2" rx="11" ry="11" style="stroke:#A80036;stroke-width:1.0;"/><path d="M1236.7656,251.375 Q1236.9219,251.1563 1237.1094,251.0469 Q1237.2969,250.9375 1237.5156,250.9375 Q1237.8906,250.9375 1238.125,251.1953 Q1238.3594,251.4531 1238.3594,252.0625 L1238.3594,253.5156 Q1238.3594,254.125 1238.125,254.3906 Q1237.8906,254.6563 1237.5156,254.6563 Q1237.1719,254.6563 1236.9688,254.4531 Q1236.7656,254.2656 1236.6563,253.75 Q1236.6094,253.3906 1236.4219,253.2031 Q1236.0938,252.8281 1235.4844,252.6094 Q1234.875,252.3906 1234.25,252.3906 Q1233.4844,252.3906 1232.8516,252.7188 Q1232.2188,253.0469 1231.7266,253.7969 Q1231.2344,254.5469 1231.2344,255.5781 L1231.2344,256.6719 Q1231.2344,257.9063 1232.125,258.7266 Q1233.0156,259.5469 1234.6094,259.5469 Q1235.5469,259.5469 1236.2031,259.2969 Q1236.5938,259.1406 1237.0156,258.7031 Q1237.2813,258.4375 1237.4297,258.3594 Q1237.5781,258.2813 1237.7813,258.2813 Q1238.1094,258.2813 1238.3672,258.5391 Q1238.625,258.7969 1238.625,259.1406 Q1238.625,259.4844 1238.2813,259.8906 Q1237.7813,260.4688 1236.9844,260.7969 Q1235.9063,261.25 1234.6094,261.25 Q1233.0938,261.25 1231.8906,260.625 Q1230.9063,260.125 1230.2188,259.0547 Q1229.5313,257.9844 1229.5313,256.7031 L1229.5313,255.5469 Q1229.5313,254.2188 1230.1484,253.0703 Q1230.7656,251.9219 1231.8594,251.3047 Q1232.9531,250.6875 1234.1875,250.6875 Q1234.9219,250.6875 1235.5703,250.8516 Q1236.2188,251.0156 1236.7656,251.375 Z " fill="#000000"/><text fill="#000000" font-family="sans-serif" font-size="12" lengthAdjust="spacing" textLength="113" x="1248" y="260.4102">ModalitéDeSélection</text><line style="stroke:#A80036;stroke-width:1.5;" x1="1220" x2="1363" y1="271.5" y2="271.5"/><text fill="#000000" font-family="sans-serif" font-size="11" lengthAdjust="spacing" textLength="112" x="1225" y="286.9189">MLR_String Description</text><line style="stroke:#A80036;stroke-width:1.5;" x1="1220" x2="1363" y1="293.3359" y2="293.3359"/><!--MD5=[9e397372621e0fd24d0deb4da7136e75]
class FraisDeFormation--><rect codeLine="51" fill="#FEFECE" filter="url(#fn7vq4wfr60ft)" height="117.1797" id="FraisDeFormation" style="stroke:#A80036;stroke-width:1.5;" width="132" x="1793.5" y="7"/><ellipse cx="1808.5" cy="23" fill="#ADD1B2" rx="11" ry="11" style="stroke:#A80036;stroke-width:1.0;"/><path d="M1811.2656,18.875 Q1811.4219,18.6563 1811.6094,18.5469 Q1811.7969,18.4375 1812.0156,18.4375 Q1812.3906,18.4375 1812.625,18.6953 Q1812.8594,18.9531 1812.8594,19.5625 L1812.8594,21.0156 Q1812.8594,21.625 1812.625,21.8906 Q1812.3906,22.1563 1812.0156,22.1563 Q1811.6719,22.1563 1811.4688,21.9531 Q1811.2656,21.7656 1811.1563,21.25 Q1811.1094,20.8906 1810.9219,20.7031 Q1810.5938,20.3281 1809.9844,20.1094 Q1809.375,19.8906 1808.75,19.8906 Q1807.9844,19.8906 1807.3516,20.2188 Q1806.7188,20.5469 1806.2266,21.2969 Q1805.7344,22.0469 1805.7344,23.0781 L1805.7344,24.1719 Q1805.7344,25.4063 1806.625,26.2266 Q1807.5156,27.0469 1809.1094,27.0469 Q1810.0469,27.0469 1810.7031,26.7969 Q1811.0938,26.6406 1811.5156,26.2031 Q1811.7813,25.9375 1811.9297,25.8594 Q1812.0781,25.7813 1812.2813,25.7813 Q1812.6094,25.7813 1812.8672,26.0391 Q1813.125,26.2969 1813.125,26.6406 Q1813.125,26.9844 1812.7813,27.3906 Q1812.2813,27.9688 1811.4844,28.2969 Q1810.4063,28.75 1809.1094,28.75 Q1807.5938,28.75 1806.3906,28.125 Q1805.4063,27.625 1804.7188,26.5547 Q1804.0313,25.4844 1804.0313,24.2031 L1804.0313,23.0469 Q1804.0313,21.7188 1804.6484,20.5703 Q1805.2656,19.4219 1806.3594,18.8047 Q1807.4531,18.1875 1808.6875,18.1875 Q1809.4219,18.1875 1810.0703,18.3516 Q1810.7188,18.5156 1811.2656,18.875 Z " fill="#000000"/><text fill="#000000" font-family="sans-serif" font-size="12" lengthAdjust="spacing" textLength="100" x="1822.5" y="27.9102">FraisDeFormation</text><line style="stroke:#A80036;stroke-width:1.5;" x1="1794.5" x2="1924.5" y1="39" y2="39"/><text fill="#000000" font-family="sans-serif" font-size="11" lengthAdjust="spacing" textLength="97" x="1799.5" y="54.4189">Reel_positif Montant</text><text fill="#000000" font-family="sans-serif" font-size="11" lengthAdjust="spacing" textLength="83" x="1799.5" y="68.2549">ISO_4217 Devise</text><text fill="#000000" font-family="sans-serif" font-size="11" lengthAdjust="spacing" textLength="105" x="1799.5" y="82.0908">Reel_positif TauxTVA</text><text fill="#000000" font-family="sans-serif" font-size="11" lengthAdjust="spacing" textLength="85" x="1799.5" y="95.9268">Vocabulaire Type</text><text fill="#000000" font-family="sans-serif" font-size="11" lengthAdjust="spacing" textLength="112" x="1799.5" y="109.7627">MLR_String Description</text><line style="stroke:#A80036;stroke-width:1.5;" x1="1794.5" x2="1924.5" y1="116.1797" y2="116.1797"/><!--MD5=[ec027bfc09efed8934c6393c4f413cc9]
class CaractéristiqueDelaFormation--><rect codeLine="59" fill="#FEFECE" filter="url(#fn7vq4wfr60ft)" height="172.5234" id="CaractéristiqueDelaFormation" style="stroke:#A80036;stroke-width:1.5;" width="231" x="793" y="184"/><ellipse cx="823.3" cy="200" fill="#A9DCDF" rx="11" ry="11" style="stroke:#A80036;stroke-width:1.0;"/><path d="M825.4875,201.7656 L821.3469,201.7656 L820.925,202.7969 L821.3469,202.7969 Q821.9563,202.7969 822.2219,203.0313 Q822.4875,203.2656 822.4875,203.6563 Q822.4875,204.0313 822.2219,204.2656 Q821.9563,204.5 821.3469,204.5 L819.05,204.5 Q818.4406,204.5 818.1828,204.2656 Q817.925,204.0313 817.925,203.6406 Q817.925,203.2656 818.1984,203.0234 Q818.4719,202.7813 819.0969,202.7969 L821.7688,196.1406 L820.6594,196.1406 Q820.05,196.1406 819.7844,195.9063 Q819.5188,195.6719 819.5188,195.2813 Q819.5188,194.9063 819.7844,194.6719 Q820.05,194.4375 820.6594,194.4375 L824.3313,194.4375 L827.7219,202.7969 Q828.3156,202.7969 828.5031,202.9375 Q828.8938,203.2031 828.8938,203.6563 Q828.8938,204.0313 828.6359,204.2656 Q828.3781,204.5 827.7688,204.5 L825.4719,204.5 Q824.8625,204.5 824.5969,204.2656 Q824.3313,204.0313 824.3313,203.6406 Q824.3313,203.2656 824.5969,203.0313 Q824.8625,202.7969 825.4719,202.7969 L825.8938,202.7969 L825.4875,201.7656 Z M824.7688,200.0625 L823.4094,196.6875 L822.0344,200.0625 L824.7688,200.0625 Z " fill="#000000"/><text fill="#000000" font-family="sans-serif" font-size="12" font-style="italic" lengthAdjust="spacing" textLength="165" x="840.7" y="204.9102">CaractéristiqueDelaFormation</text><line style="stroke:#A80036;stroke-width:1.5;" x1="794" x2="1023" y1="216" y2="216"/><text fill="#000000" font-family="sans-serif" font-size="11" lengthAdjust="spacing" textLength="112" x="799" y="231.4189">MLR_String Description</text><text fill="#000000" font-family="sans-serif" font-size="11" lengthAdjust="spacing" textLength="102" x="799" y="245.2549">Vocabulaire Domaine</text><text fill="#000000" font-family="sans-serif" font-size="11" lengthAdjust="spacing" textLength="165" x="799" y="259.0908">MLR_Duration DuréeHorsEntrprise</text><text fill="#000000" font-family="sans-serif" font-size="11" lengthAdjust="spacing" textLength="154" x="799" y="272.9268">MLR_Duration DuréeEnEntrprise</text><text fill="#000000" font-family="sans-serif" font-size="11" lengthAdjust="spacing" textLength="123" x="799" y="286.7627">Période DuréeEnEntrprise</text><text fill="#000000" font-family="sans-serif" font-size="11" lengthAdjust="spacing" textLength="123" x="799" y="300.5986">CreditsECTS CréditsECTS</text><text fill="#000000" font-family="sans-serif" font-size="11" lengthAdjust="spacing" textLength="219" x="799" y="314.4346">ISO_IEC_19788_1_2011__RC0002 ressource</text><text fill="#000000" font-family="sans-serif" font-size="11" lengthAdjust="spacing" textLength="188" x="799" y="328.2705">ISO_IEC_22602_RC0003 APourObjectif</text><text fill="#000000" font-family="sans-serif" font-size="11" lengthAdjust="spacing" textLength="197" x="799" y="342.1064">ISO_IEC_22602_RC0003 APourPrérequis</text><line style="stroke:#A80036;stroke-width:1.5;" x1="794" x2="1023" y1="348.5234" y2="348.5234"/><!--MD5=[251454e98c15f29849fb35b1904d0020]
class Composition--><rect codeLine="71" fill="#FEFECE" filter="url(#fn7vq4wfr60ft)" height="61.8359" id="Composition" style="stroke:#A80036;stroke-width:1.5;" width="109" x="2497" y="34.5"/><ellipse cx="2515.15" cy="50.5" fill="#A9DCDF" rx="11" ry="11" style="stroke:#A80036;stroke-width:1.0;"/><path d="M2517.3375,52.2656 L2513.1969,52.2656 L2512.775,53.2969 L2513.1969,53.2969 Q2513.8063,53.2969 2514.0719,53.5313 Q2514.3375,53.7656 2514.3375,54.1563 Q2514.3375,54.5313 2514.0719,54.7656 Q2513.8063,55 2513.1969,55 L2510.9,55 Q2510.2906,55 2510.0328,54.7656 Q2509.775,54.5313 2509.775,54.1406 Q2509.775,53.7656 2510.0484,53.5234 Q2510.3219,53.2813 2510.9469,53.2969 L2513.6188,46.6406 L2512.5094,46.6406 Q2511.9,46.6406 2511.6344,46.4063 Q2511.3688,46.1719 2511.3688,45.7813 Q2511.3688,45.4063 2511.6344,45.1719 Q2511.9,44.9375 2512.5094,44.9375 L2516.1813,44.9375 L2519.5719,53.2969 Q2520.1656,53.2969 2520.3531,53.4375 Q2520.7438,53.7031 2520.7438,54.1563 Q2520.7438,54.5313 2520.4859,54.7656 Q2520.2281,55 2519.6188,55 L2517.3219,55 Q2516.7125,55 2516.4469,54.7656 Q2516.1813,54.5313 2516.1813,54.1406 Q2516.1813,53.7656 2516.4469,53.5313 Q2516.7125,53.2969 2517.3219,53.2969 L2517.7438,53.2969 L2517.3375,52.2656 Z M2516.6188,50.5625 L2515.2594,47.1875 L2513.8844,50.5625 L2516.6188,50.5625 Z " fill="#000000"/><text fill="#000000" font-family="sans-serif" font-size="12" font-style="italic" lengthAdjust="spacing" textLength="70" x="2529.85" y="55.4102">Composition</text><line style="stroke:#A80036;stroke-width:1.5;" x1="2498" x2="2605" y1="66.5" y2="66.5"/><text fill="#000000" font-family="sans-serif" font-size="11" lengthAdjust="spacing" textLength="97" x="2503" y="81.9189">ElementDeFormation</text><line style="stroke:#A80036;stroke-width:1.5;" x1="2498" x2="2605" y1="88.3359" y2="88.3359"/><!--MD5=[72f5cf52dba78513b55cc66a4b25b27b]
class CompositionObligatoire--><rect codeLine="74" fill="#FEFECE" filter="url(#fn7vq4wfr60ft)" height="48" id="CompositionObligatoire" style="stroke:#A80036;stroke-width:1.5;" width="163" x="2261" y="246.5"/><ellipse cx="2276" cy="262.5" fill="#ADD1B2" rx="11" ry="11" style="stroke:#A80036;stroke-width:1.0;"/><path d="M2278.7656,258.375 Q2278.9219,258.1563 2279.1094,258.0469 Q2279.2969,257.9375 2279.5156,257.9375 Q2279.8906,257.9375 2280.125,258.1953 Q2280.3594,258.4531 2280.3594,259.0625 L2280.3594,260.5156 Q2280.3594,261.125 2280.125,261.3906 Q2279.8906,261.6563 2279.5156,261.6563 Q2279.1719,261.6563 2278.9688,261.4531 Q2278.7656,261.2656 2278.6563,260.75 Q2278.6094,260.3906 2278.4219,260.2031 Q2278.0938,259.8281 2277.4844,259.6094 Q2276.875,259.3906 2276.25,259.3906 Q2275.4844,259.3906 2274.8516,259.7188 Q2274.2188,260.0469 2273.7266,260.7969 Q2273.2344,261.5469 2273.2344,262.5781 L2273.2344,263.6719 Q2273.2344,264.9063 2274.125,265.7266 Q2275.0156,266.5469 2276.6094,266.5469 Q2277.5469,266.5469 2278.2031,266.2969 Q2278.5938,266.1406 2279.0156,265.7031 Q2279.2813,265.4375 2279.4297,265.3594 Q2279.5781,265.2813 2279.7813,265.2813 Q2280.1094,265.2813 2280.3672,265.5391 Q2280.625,265.7969 2280.625,266.1406 Q2280.625,266.4844 2280.2813,266.8906 Q2279.7813,267.4688 2278.9844,267.7969 Q2277.9063,268.25 2276.6094,268.25 Q2275.0938,268.25 2273.8906,267.625 Q2272.9063,267.125 2272.2188,266.0547 Q2271.5313,264.9844 2271.5313,263.7031 L2271.5313,262.5469 Q2271.5313,261.2188 2272.1484,260.0703 Q2272.7656,258.9219 2273.8594,258.3047 Q2274.9531,257.6875 2276.1875,257.6875 Q2276.9219,257.6875 2277.5703,257.8516 Q2278.2188,258.0156 2278.7656,258.375 Z " fill="#000000"/><text fill="#000000" font-family="sans-serif" font-size="12" lengthAdjust="spacing" textLength="131" x="2290" y="267.4102">CompositionObligatoire</text><line style="stroke:#A80036;stroke-width:1.5;" x1="2262" x2="2423" y1="278.5" y2="278.5"/><line style="stroke:#A80036;stroke-width:1.5;" x1="2262" x2="2423" y1="286.5" y2="286.5"/><!--MD5=[12185ff7d3705742acf5ddeb49d2fa48]
class CompositionOpérationnelle--><rect codeLine="76" fill="#FEFECE" filter="url(#fn7vq4wfr60ft)" height="48" id="CompositionOpérationnelle" style="stroke:#A80036;stroke-width:1.5;" width="184" x="2459.5" y="246.5"/><ellipse cx="2474.5" cy="262.5" fill="#ADD1B2" rx="11" ry="11" style="stroke:#A80036;stroke-width:1.0;"/><path d="M2477.2656,258.375 Q2477.4219,258.1563 2477.6094,258.0469 Q2477.7969,257.9375 2478.0156,257.9375 Q2478.3906,257.9375 2478.625,258.1953 Q2478.8594,258.4531 2478.8594,259.0625 L2478.8594,260.5156 Q2478.8594,261.125 2478.625,261.3906 Q2478.3906,261.6563 2478.0156,261.6563 Q2477.6719,261.6563 2477.4688,261.4531 Q2477.2656,261.2656 2477.1563,260.75 Q2477.1094,260.3906 2476.9219,260.2031 Q2476.5938,259.8281 2475.9844,259.6094 Q2475.375,259.3906 2474.75,259.3906 Q2473.9844,259.3906 2473.3516,259.7188 Q2472.7188,260.0469 2472.2266,260.7969 Q2471.7344,261.5469 2471.7344,262.5781 L2471.7344,263.6719 Q2471.7344,264.9063 2472.625,265.7266 Q2473.5156,266.5469 2475.1094,266.5469 Q2476.0469,266.5469 2476.7031,266.2969 Q2477.0938,266.1406 2477.5156,265.7031 Q2477.7813,265.4375 2477.9297,265.3594 Q2478.0781,265.2813 2478.2813,265.2813 Q2478.6094,265.2813 2478.8672,265.5391 Q2479.125,265.7969 2479.125,266.1406 Q2479.125,266.4844 2478.7813,266.8906 Q2478.2813,267.4688 2477.4844,267.7969 Q2476.4063,268.25 2475.1094,268.25 Q2473.5938,268.25 2472.3906,267.625 Q2471.4063,267.125 2470.7188,266.0547 Q2470.0313,264.9844 2470.0313,263.7031 L2470.0313,262.5469 Q2470.0313,261.2188 2470.6484,260.0703 Q2471.2656,258.9219 2472.3594,258.3047 Q2473.4531,257.6875 2474.6875,257.6875 Q2475.4219,257.6875 2476.0703,257.8516 Q2476.7188,258.0156 2477.2656,258.375 Z " fill="#000000"/><text fill="#000000" font-family="sans-serif" font-size="12" lengthAdjust="spacing" textLength="152" x="2488.5" y="267.4102">CompositionOpérationnelle</text><line style="stroke:#A80036;stroke-width:1.5;" x1="2460.5" x2="2642.5" y1="278.5" y2="278.5"/><line style="stroke:#A80036;stroke-width:1.5;" x1="2460.5" x2="2642.5" y1="286.5" y2="286.5"/><!--MD5=[44d07b7bf9c04919526b64756298c27a]
class CompositionAChoix--><rect codeLine="78" fill="#FEFECE" filter="url(#fn7vq4wfr60ft)" height="75.6719" id="CompositionAChoix" style="stroke:#A80036;stroke-width:1.5;" width="141" x="2679" y="232.5"/><ellipse cx="2694" cy="248.5" fill="#ADD1B2" rx="11" ry="11" style="stroke:#A80036;stroke-width:1.0;"/><path d="M2696.7656,244.375 Q2696.9219,244.1563 2697.1094,244.0469 Q2697.2969,243.9375 2697.5156,243.9375 Q2697.8906,243.9375 2698.125,244.1953 Q2698.3594,244.4531 2698.3594,245.0625 L2698.3594,246.5156 Q2698.3594,247.125 2698.125,247.3906 Q2697.8906,247.6563 2697.5156,247.6563 Q2697.1719,247.6563 2696.9688,247.4531 Q2696.7656,247.2656 2696.6563,246.75 Q2696.6094,246.3906 2696.4219,246.2031 Q2696.0938,245.8281 2695.4844,245.6094 Q2694.875,245.3906 2694.25,245.3906 Q2693.4844,245.3906 2692.8516,245.7188 Q2692.2188,246.0469 2691.7266,246.7969 Q2691.2344,247.5469 2691.2344,248.5781 L2691.2344,249.6719 Q2691.2344,250.9063 2692.125,251.7266 Q2693.0156,252.5469 2694.6094,252.5469 Q2695.5469,252.5469 2696.2031,252.2969 Q2696.5938,252.1406 2697.0156,251.7031 Q2697.2813,251.4375 2697.4297,251.3594 Q2697.5781,251.2813 2697.7813,251.2813 Q2698.1094,251.2813 2698.3672,251.5391 Q2698.625,251.7969 2698.625,252.1406 Q2698.625,252.4844 2698.2813,252.8906 Q2697.7813,253.4688 2696.9844,253.7969 Q2695.9063,254.25 2694.6094,254.25 Q2693.0938,254.25 2691.8906,253.625 Q2690.9063,253.125 2690.2188,252.0547 Q2689.5313,250.9844 2689.5313,249.7031 L2689.5313,248.5469 Q2689.5313,247.2188 2690.1484,246.0703 Q2690.7656,244.9219 2691.8594,244.3047 Q2692.9531,243.6875 2694.1875,243.6875 Q2694.9219,243.6875 2695.5703,243.8516 Q2696.2188,244.0156 2696.7656,244.375 Z " fill="#000000"/><text fill="#000000" font-family="sans-serif" font-size="12" lengthAdjust="spacing" textLength="109" x="2708" y="253.4102">CompositionAChoix</text><line style="stroke:#A80036;stroke-width:1.5;" x1="2680" x2="2819" y1="264.5" y2="264.5"/><text fill="#000000" font-family="sans-serif" font-size="11" lengthAdjust="spacing" textLength="97" x="2685" y="279.9189">Float NombreMinimal</text><text fill="#000000" font-family="sans-serif" font-size="11" lengthAdjust="spacing" textLength="101" x="2685" y="293.7549">Float NombreMaximal</text><line style="stroke:#A80036;stroke-width:1.5;" x1="2680" x2="2819" y1="300.1719" y2="300.1719"/><!--MD5=[794ebd92abd0f565b34c74a4789774c3]
class CreditsECTS--><rect codeLine="82" fill="#FEFECE" filter="url(#fn7vq4wfr60ft)" height="75.6719" id="CreditsECTS" style="stroke:#A80036;stroke-width:1.5;" width="165" x="1399" y="232.5"/><ellipse cx="1441.45" cy="248.5" fill="#ADD1B2" rx="11" ry="11" style="stroke:#A80036;stroke-width:1.0;"/><path d="M1444.2156,244.375 Q1444.3719,244.1563 1444.5594,244.0469 Q1444.7469,243.9375 1444.9656,243.9375 Q1445.3406,243.9375 1445.575,244.1953 Q1445.8094,244.4531 1445.8094,245.0625 L1445.8094,246.5156 Q1445.8094,247.125 1445.575,247.3906 Q1445.3406,247.6563 1444.9656,247.6563 Q1444.6219,247.6563 1444.4188,247.4531 Q1444.2156,247.2656 1444.1063,246.75 Q1444.0594,246.3906 1443.8719,246.2031 Q1443.5438,245.8281 1442.9344,245.6094 Q1442.325,245.3906 1441.7,245.3906 Q1440.9344,245.3906 1440.3016,245.7188 Q1439.6688,246.0469 1439.1766,246.7969 Q1438.6844,247.5469 1438.6844,248.5781 L1438.6844,249.6719 Q1438.6844,250.9063 1439.575,251.7266 Q1440.4656,252.5469 1442.0594,252.5469 Q1442.9969,252.5469 1443.6531,252.2969 Q1444.0438,252.1406 1444.4656,251.7031 Q1444.7313,251.4375 1444.8797,251.3594 Q1445.0281,251.2813 1445.2313,251.2813 Q1445.5594,251.2813 1445.8172,251.5391 Q1446.075,251.7969 1446.075,252.1406 Q1446.075,252.4844 1445.7313,252.8906 Q1445.2313,253.4688 1444.4344,253.7969 Q1443.3563,254.25 1442.0594,254.25 Q1440.5438,254.25 1439.3406,253.625 Q1438.3563,253.125 1437.6688,252.0547 Q1436.9813,250.9844 1436.9813,249.7031 L1436.9813,248.5469 Q1436.9813,247.2188 1437.5984,246.0703 Q1438.2156,244.9219 1439.3094,244.3047 Q1440.4031,243.6875 1441.6375,243.6875 Q1442.3719,243.6875 1443.0203,243.8516 Q1443.6688,244.0156 1444.2156,244.375 Z " fill="#000000"/><text fill="#000000" font-family="sans-serif" font-size="12" lengthAdjust="spacing" textLength="72" x="1461.55" y="253.4102">CreditsECTS</text><line style="stroke:#A80036;stroke-width:1.5;" x1="1400" x2="1563" y1="264.5" y2="264.5"/><text fill="#000000" font-family="sans-serif" font-size="11" lengthAdjust="spacing" textLength="153" x="1405" y="279.9189">Positive_Float NombreDeCrédits</text><text fill="#000000" font-family="sans-serif" font-size="11" lengthAdjust="spacing" textLength="88" x="1405" y="293.7549">Formation RelatifA</text><line style="stroke:#A80036;stroke-width:1.5;" x1="1400" x2="1563" y1="300.1719" y2="300.1719"/><!--MD5=[a82f2aff3b7e5db14a73591e83a59399]
class SessionDInformation--><rect codeLine="87" fill="#FEFECE" filter="url(#fn7vq4wfr60ft)" height="89.5078" id="SessionDInformation" style="stroke:#A80036;stroke-width:1.5;" width="167" x="1599" y="225.5"/><ellipse cx="1622.1" cy="241.5" fill="#ADD1B2" rx="11" ry="11" style="stroke:#A80036;stroke-width:1.0;"/><path d="M1624.8656,237.375 Q1625.0219,237.1563 1625.2094,237.0469 Q1625.3969,236.9375 1625.6156,236.9375 Q1625.9906,236.9375 1626.225,237.1953 Q1626.4594,237.4531 1626.4594,238.0625 L1626.4594,239.5156 Q1626.4594,240.125 1626.225,240.3906 Q1625.9906,240.6563 1625.6156,240.6563 Q1625.2719,240.6563 1625.0688,240.4531 Q1624.8656,240.2656 1624.7563,239.75 Q1624.7094,239.3906 1624.5219,239.2031 Q1624.1938,238.8281 1623.5844,238.6094 Q1622.975,238.3906 1622.35,238.3906 Q1621.5844,238.3906 1620.9516,238.7188 Q1620.3188,239.0469 1619.8266,239.7969 Q1619.3344,240.5469 1619.3344,241.5781 L1619.3344,242.6719 Q1619.3344,243.9063 1620.225,244.7266 Q1621.1156,245.5469 1622.7094,245.5469 Q1623.6469,245.5469 1624.3031,245.2969 Q1624.6938,245.1406 1625.1156,244.7031 Q1625.3813,244.4375 1625.5297,244.3594 Q1625.6781,244.2813 1625.8813,244.2813 Q1626.2094,244.2813 1626.4672,244.5391 Q1626.725,244.7969 1626.725,245.1406 Q1626.725,245.4844 1626.3813,245.8906 Q1625.8813,246.4688 1625.0844,246.7969 Q1624.0063,247.25 1622.7094,247.25 Q1621.1938,247.25 1619.9906,246.625 Q1619.0063,246.125 1618.3188,245.0547 Q1617.6313,243.9844 1617.6313,242.7031 L1617.6313,241.5469 Q1617.6313,240.2188 1618.2484,239.0703 Q1618.8656,237.9219 1619.9594,237.3047 Q1621.0531,236.6875 1622.2875,236.6875 Q1623.0219,236.6875 1623.6703,236.8516 Q1624.3188,237.0156 1624.8656,237.375 Z " fill="#000000"/><text fill="#000000" font-family="sans-serif" font-size="12" lengthAdjust="spacing" textLength="117" x="1637.9" y="246.4102">SessionDInformation</text><line style="stroke:#A80036;stroke-width:1.5;" x1="1600" x2="1765" y1="257.5" y2="257.5"/><text fill="#000000" font-family="sans-serif" font-size="11" lengthAdjust="spacing" textLength="74" x="1605" y="272.9189">MLR_Date Date</text><text fill="#000000" font-family="sans-serif" font-size="11" lengthAdjust="spacing" textLength="78" x="1605" y="286.7549">MLR_String Lieu</text><text fill="#000000" font-family="sans-serif" font-size="11" lengthAdjust="spacing" textLength="155" x="1605" y="300.5908">Nombre_Naturel NombreMaximal</text><line style="stroke:#A80036;stroke-width:1.5;" x1="1600" x2="1765" y1="307.0078" y2="307.0078"/><!--MD5=[de2d4e8b9258002614a525847df4b83b]
class PeriodeDInterruption--><rect codeLine="93" fill="#FEFECE" filter="url(#fn7vq4wfr60ft)" height="89.5078" id="PeriodeDInterruption" style="stroke:#A80036;stroke-width:1.5;" width="146" x="1801.5" y="225.5"/><ellipse cx="1816.5" cy="241.5" fill="#ADD1B2" rx="11" ry="11" style="stroke:#A80036;stroke-width:1.0;"/><path d="M1819.2656,237.375 Q1819.4219,237.1563 1819.6094,237.0469 Q1819.7969,236.9375 1820.0156,236.9375 Q1820.3906,236.9375 1820.625,237.1953 Q1820.8594,237.4531 1820.8594,238.0625 L1820.8594,239.5156 Q1820.8594,240.125 1820.625,240.3906 Q1820.3906,240.6563 1820.0156,240.6563 Q1819.6719,240.6563 1819.4688,240.4531 Q1819.2656,240.2656 1819.1563,239.75 Q1819.1094,239.3906 1818.9219,239.2031 Q1818.5938,238.8281 1817.9844,238.6094 Q1817.375,238.3906 1816.75,238.3906 Q1815.9844,238.3906 1815.3516,238.7188 Q1814.7188,239.0469 1814.2266,239.7969 Q1813.7344,240.5469 1813.7344,241.5781 L1813.7344,242.6719 Q1813.7344,243.9063 1814.625,244.7266 Q1815.5156,245.5469 1817.1094,245.5469 Q1818.0469,245.5469 1818.7031,245.2969 Q1819.0938,245.1406 1819.5156,244.7031 Q1819.7813,244.4375 1819.9297,244.3594 Q1820.0781,244.2813 1820.2813,244.2813 Q1820.6094,244.2813 1820.8672,244.5391 Q1821.125,244.7969 1821.125,245.1406 Q1821.125,245.4844 1820.7813,245.8906 Q1820.2813,246.4688 1819.4844,246.7969 Q1818.4063,247.25 1817.1094,247.25 Q1815.5938,247.25 1814.3906,246.625 Q1813.4063,246.125 1812.7188,245.0547 Q1812.0313,243.9844 1812.0313,242.7031 L1812.0313,241.5469 Q1812.0313,240.2188 1812.6484,239.0703 Q1813.2656,237.9219 1814.3594,237.3047 Q1815.4531,236.6875 1816.6875,236.6875 Q1817.4219,236.6875 1818.0703,236.8516 Q1818.7188,237.0156 1819.2656,237.375 Z " fill="#000000"/><text fill="#000000" font-family="sans-serif" font-size="12" lengthAdjust="spacing" textLength="114" x="1830.5" y="246.4102">PeriodeDInterruption</text><line style="stroke:#A80036;stroke-width:1.5;" x1="1802.5" x2="1946.5" y1="257.5" y2="257.5"/><text fill="#000000" font-family="sans-serif" font-size="11" lengthAdjust="spacing" textLength="80" x="1807.5" y="272.9189">MLR_Date Début</text><text fill="#000000" font-family="sans-serif" font-size="11" lengthAdjust="spacing" textLength="66" x="1807.5" y="286.7549">MLR_Date Fin</text><text fill="#000000" font-family="sans-serif" font-size="11" lengthAdjust="spacing" textLength="120" x="1807.5" y="300.5908">MLR_String Commentaire</text><line style="stroke:#A80036;stroke-width:1.5;" x1="1802.5" x2="1946.5" y1="307.0078" y2="307.0078"/><!--MD5=[9731e85f1a2420b35d546c8dd1cd6cdd]
class Formation--><rect codeLine="99" fill="#FEFECE" filter="url(#fn7vq4wfr60ft)" height="186.3594" id="Formation" style="stroke:#A80036;stroke-width:1.5;" width="238" x="567.5" y="417"/><ellipse cx="654.25" cy="433" fill="#A9DCDF" rx="11" ry="11" style="stroke:#A80036;stroke-width:1.0;"/><path d="M656.4375,434.7656 L652.2969,434.7656 L651.875,435.7969 L652.2969,435.7969 Q652.9063,435.7969 653.1719,436.0313 Q653.4375,436.2656 653.4375,436.6563 Q653.4375,437.0313 653.1719,437.2656 Q652.9063,437.5 652.2969,437.5 L650,437.5 Q649.3906,437.5 649.1328,437.2656 Q648.875,437.0313 648.875,436.6406 Q648.875,436.2656 649.1484,436.0234 Q649.4219,435.7813 650.0469,435.7969 L652.7188,429.1406 L651.6094,429.1406 Q651,429.1406 650.7344,428.9063 Q650.4688,428.6719 650.4688,428.2813 Q650.4688,427.9063 650.7344,427.6719 Q651,427.4375 651.6094,427.4375 L655.2813,427.4375 L658.6719,435.7969 Q659.2656,435.7969 659.4531,435.9375 Q659.8438,436.2031 659.8438,436.6563 Q659.8438,437.0313 659.5859,437.2656 Q659.3281,437.5 658.7188,437.5 L656.4219,437.5 Q655.8125,437.5 655.5469,437.2656 Q655.2813,437.0313 655.2813,436.6406 Q655.2813,436.2656 655.5469,436.0313 Q655.8125,435.7969 656.4219,435.7969 L656.8438,435.7969 L656.4375,434.7656 Z M655.7188,433.0625 L654.3594,429.6875 L652.9844,433.0625 L655.7188,433.0625 Z " fill="#000000"/><text fill="#000000" font-family="sans-serif" font-size="12" font-style="italic" lengthAdjust="spacing" textLength="56" x="674.75" y="437.9102">Formation</text><line style="stroke:#A80036;stroke-width:1.5;" x1="568.5" x2="804.5" y1="449" y2="449"/><text fill="#000000" font-family="sans-serif" font-size="11" lengthAdjust="spacing" textLength="154" x="573.5" y="464.4189">ISO_639 LangueDEnseignement</text><text fill="#000000" font-family="sans-serif" font-size="11" lengthAdjust="spacing" textLength="150" x="573.5" y="478.2549">MLR_Duration ChargeDeTravail</text><text fill="#000000" font-family="sans-serif" font-size="11" lengthAdjust="spacing" textLength="226" x="573.5" y="492.0908">ISO_IEC_19788_1_2010_RC0003 Responsable</text><text fill="#000000" font-family="sans-serif" font-size="11" lengthAdjust="spacing" textLength="162" x="573.5" y="505.9268">MLR_String ConditionDeValidation</text><text fill="#000000" font-family="sans-serif" font-size="11" lengthAdjust="spacing" textLength="112" x="573.5" y="519.7627">MLR_String Programme</text><text fill="#000000" font-family="sans-serif" font-size="11" lengthAdjust="spacing" textLength="85" x="573.5" y="533.5986">IRI ProgrammeRef</text><text fill="#000000" font-family="sans-serif" font-size="11" lengthAdjust="spacing" textLength="160" x="573.5" y="547.4346">Vocabulaire MaterielPedagogique</text><text fill="#000000" font-family="sans-serif" font-size="11" lengthAdjust="spacing" textLength="109" x="573.5" y="561.2705">Vocabulaire Financeur</text><text fill="#000000" font-family="sans-serif" font-size="11" lengthAdjust="spacing" textLength="189" x="573.5" y="575.1064">CertificatBadgeDiplome PermetDObtenir</text><text fill="#000000" font-family="sans-serif" font-size="11" lengthAdjust="spacing" textLength="109" x="573.5" y="588.9424">FraisDeFormation Tarif</text><line style="stroke:#A80036;stroke-width:1.5;" x1="568.5" x2="804.5" y1="595.3594" y2="595.3594"/><!--MD5=[f2b05a11b5c02b424ff9b8bd8876b9f0]
class ActionDeFormation--><rect codeLine="112" fill="#FEFECE" filter="url(#fn7vq4wfr60ft)" height="158.6875" id="ActionDeFormation" style="stroke:#A80036;stroke-width:1.5;" width="187" x="269" y="663"/><ellipse cx="306.5" cy="679" fill="#ADD1B2" rx="11" ry="11" style="stroke:#A80036;stroke-width:1.0;"/><path d="M309.2656,674.875 Q309.4219,674.6563 309.6094,674.5469 Q309.7969,674.4375 310.0156,674.4375 Q310.3906,674.4375 310.625,674.6953 Q310.8594,674.9531 310.8594,675.5625 L310.8594,677.0156 Q310.8594,677.625 310.625,677.8906 Q310.3906,678.1563 310.0156,678.1563 Q309.6719,678.1563 309.4688,677.9531 Q309.2656,677.7656 309.1563,677.25 Q309.1094,676.8906 308.9219,676.7031 Q308.5938,676.3281 307.9844,676.1094 Q307.375,675.8906 306.75,675.8906 Q305.9844,675.8906 305.3516,676.2188 Q304.7188,676.5469 304.2266,677.2969 Q303.7344,678.0469 303.7344,679.0781 L303.7344,680.1719 Q303.7344,681.4063 304.625,682.2266 Q305.5156,683.0469 307.1094,683.0469 Q308.0469,683.0469 308.7031,682.7969 Q309.0938,682.6406 309.5156,682.2031 Q309.7813,681.9375 309.9297,681.8594 Q310.0781,681.7813 310.2813,681.7813 Q310.6094,681.7813 310.8672,682.0391 Q311.125,682.2969 311.125,682.6406 Q311.125,682.9844 310.7813,683.3906 Q310.2813,683.9688 309.4844,684.2969 Q308.4063,684.75 307.1094,684.75 Q305.5938,684.75 304.3906,684.125 Q303.4063,683.625 302.7188,682.5547 Q302.0313,681.4844 302.0313,680.2031 L302.0313,679.0469 Q302.0313,677.7188 302.6484,676.5703 Q303.2656,675.4219 304.3594,674.8047 Q305.4531,674.1875 306.6875,674.1875 Q307.4219,674.1875 308.0703,674.3516 Q308.7188,674.5156 309.2656,674.875 Z " fill="#000000"/><text fill="#000000" font-family="sans-serif" font-size="12" lengthAdjust="spacing" textLength="105" x="325.5" y="683.9102">ActionDeFormation</text><line style="stroke:#A80036;stroke-width:1.5;" x1="270" x2="455" y1="695" y2="695"/><text fill="#000000" font-family="sans-serif" font-size="11" lengthAdjust="spacing" textLength="112" x="275" y="710.4189">Vocabulaire PublicCible</text><text fill="#000000" font-family="sans-serif" font-size="11" lengthAdjust="spacing" textLength="100" x="275" y="724.2549">Vocabulaire Modalité</text><text fill="#000000" font-family="sans-serif" font-size="11" lengthAdjust="spacing" textLength="125" x="275" y="738.0908">Certification EstCertifiéPar</text><text fill="#000000" font-family="sans-serif" font-size="11" lengthAdjust="spacing" textLength="140" x="275" y="751.9268">OffreDeFormation Matérialise</text><text fill="#000000" font-family="sans-serif" font-size="11" lengthAdjust="spacing" textLength="175" x="275" y="765.7627">ConditionDAccès ConditoinsDAccès</text><text fill="#000000" font-family="sans-serif" font-size="11" lengthAdjust="spacing" textLength="107" x="275" y="779.5986">Parcours SeDéclineEn</text><text fill="#000000" font-family="sans-serif" font-size="11" lengthAdjust="spacing" textLength="108" x="275" y="793.4346">Module SeComposeDe</text><text fill="#000000" font-family="sans-serif" font-size="11" lengthAdjust="spacing" textLength="89" x="275" y="807.2705">Composition Utilise</text><line style="stroke:#A80036;stroke-width:1.5;" x1="270" x2="455" y1="813.6875" y2="813.6875"/><!--MD5=[7db1b1db770967d5ff466a2fbb70e9cc]
class Parcours--><rect codeLine="123" fill="#FEFECE" filter="url(#fn7vq4wfr60ft)" height="89.5078" id="Parcours" style="stroke:#A80036;stroke-width:1.5;" width="187" x="701" y="697.5"/><ellipse cx="765.25" cy="713.5" fill="#ADD1B2" rx="11" ry="11" style="stroke:#A80036;stroke-width:1.0;"/><path d="M768.0156,709.375 Q768.1719,709.1563 768.3594,709.0469 Q768.5469,708.9375 768.7656,708.9375 Q769.1406,708.9375 769.375,709.1953 Q769.6094,709.4531 769.6094,710.0625 L769.6094,711.5156 Q769.6094,712.125 769.375,712.3906 Q769.1406,712.6563 768.7656,712.6563 Q768.4219,712.6563 768.2188,712.4531 Q768.0156,712.2656 767.9063,711.75 Q767.8594,711.3906 767.6719,711.2031 Q767.3438,710.8281 766.7344,710.6094 Q766.125,710.3906 765.5,710.3906 Q764.7344,710.3906 764.1016,710.7188 Q763.4688,711.0469 762.9766,711.7969 Q762.4844,712.5469 762.4844,713.5781 L762.4844,714.6719 Q762.4844,715.9063 763.375,716.7266 Q764.2656,717.5469 765.8594,717.5469 Q766.7969,717.5469 767.4531,717.2969 Q767.8438,717.1406 768.2656,716.7031 Q768.5313,716.4375 768.6797,716.3594 Q768.8281,716.2813 769.0313,716.2813 Q769.3594,716.2813 769.6172,716.5391 Q769.875,716.7969 769.875,717.1406 Q769.875,717.4844 769.5313,717.8906 Q769.0313,718.4688 768.2344,718.7969 Q767.1563,719.25 765.8594,719.25 Q764.3438,719.25 763.1406,718.625 Q762.1563,718.125 761.4688,717.0547 Q760.7813,715.9844 760.7813,714.7031 L760.7813,713.5469 Q760.7813,712.2188 761.3984,711.0703 Q762.0156,709.9219 763.1094,709.3047 Q764.2031,708.6875 765.4375,708.6875 Q766.1719,708.6875 766.8203,708.8516 Q767.4688,709.0156 768.0156,709.375 Z " fill="#000000"/><text fill="#000000" font-family="sans-serif" font-size="12" lengthAdjust="spacing" textLength="50" x="785.75" y="718.4102">Parcours</text><line style="stroke:#A80036;stroke-width:1.5;" x1="702" x2="887" y1="729.5" y2="729.5"/><text fill="#000000" font-family="sans-serif" font-size="11" lengthAdjust="spacing" textLength="175" x="707" y="744.9189">ConditionDAccès ConditoinsDAccès</text><text fill="#000000" font-family="sans-serif" font-size="11" lengthAdjust="spacing" textLength="108" x="707" y="758.7549">Module SeComposeDe</text><text fill="#000000" font-family="sans-serif" font-size="11" lengthAdjust="spacing" textLength="89" x="707" y="772.5908">Composition Utilise</text><line style="stroke:#A80036;stroke-width:1.5;" x1="702" x2="887" y1="779.0078" y2="779.0078"/><!--MD5=[2b7409a316d9d2e410653e6983353aed]
class Module--><rect codeLine="128" fill="#FEFECE" filter="url(#fn7vq4wfr60ft)" height="89.5078" id="Module" style="stroke:#A80036;stroke-width:1.5;" width="120" x="923.5" y="697.5"/><ellipse cx="960.1" cy="713.5" fill="#ADD1B2" rx="11" ry="11" style="stroke:#A80036;stroke-width:1.0;"/><path d="M962.8656,709.375 Q963.0219,709.1563 963.2094,709.0469 Q963.3969,708.9375 963.6156,708.9375 Q963.9906,708.9375 964.225,709.1953 Q964.4594,709.4531 964.4594,710.0625 L964.4594,711.5156 Q964.4594,712.125 964.225,712.3906 Q963.9906,712.6563 963.6156,712.6563 Q963.2719,712.6563 963.0688,712.4531 Q962.8656,712.2656 962.7563,711.75 Q962.7094,711.3906 962.5219,711.2031 Q962.1938,710.8281 961.5844,710.6094 Q960.975,710.3906 960.35,710.3906 Q959.5844,710.3906 958.9516,710.7188 Q958.3188,711.0469 957.8266,711.7969 Q957.3344,712.5469 957.3344,713.5781 L957.3344,714.6719 Q957.3344,715.9063 958.225,716.7266 Q959.1156,717.5469 960.7094,717.5469 Q961.6469,717.5469 962.3031,717.2969 Q962.6938,717.1406 963.1156,716.7031 Q963.3813,716.4375 963.5297,716.3594 Q963.6781,716.2813 963.8813,716.2813 Q964.2094,716.2813 964.4672,716.5391 Q964.725,716.7969 964.725,717.1406 Q964.725,717.4844 964.3813,717.8906 Q963.8813,718.4688 963.0844,718.7969 Q962.0063,719.25 960.7094,719.25 Q959.1938,719.25 957.9906,718.625 Q957.0063,718.125 956.3188,717.0547 Q955.6313,715.9844 955.6313,714.7031 L955.6313,713.5469 Q955.6313,712.2188 956.2484,711.0703 Q956.8656,709.9219 957.9594,709.3047 Q959.0531,708.6875 960.2875,708.6875 Q961.0219,708.6875 961.6703,708.8516 Q962.3188,709.0156 962.8656,709.375 Z " fill="#000000"/><text fill="#000000" font-family="sans-serif" font-size="12" lengthAdjust="spacing" textLength="40" x="978.9" y="718.4102">Module</text><line style="stroke:#A80036;stroke-width:1.5;" x1="924.5" x2="1042.5" y1="729.5" y2="729.5"/><text fill="#000000" font-family="sans-serif" font-size="11" lengthAdjust="spacing" textLength="73" x="929.5" y="744.9189">Module Suivant</text><text fill="#000000" font-family="sans-serif" font-size="11" lengthAdjust="spacing" textLength="108" x="929.5" y="758.7549">Module SeComposeDe</text><text fill="#000000" font-family="sans-serif" font-size="11" lengthAdjust="spacing" textLength="89" x="929.5" y="772.5908">Composition Utilise</text><line style="stroke:#A80036;stroke-width:1.5;" x1="924.5" x2="1042.5" y1="779.0078" y2="779.0078"/><!--MD5=[b16e52bf2e0ea832d0d21484eb40661f]
class ElementDeFormation--><rect codeLine="133" fill="#FEFECE" filter="url(#fn7vq4wfr60ft)" height="89.5078" id="ElementDeFormation" style="stroke:#A80036;stroke-width:1.5;" width="184" x="1078.5" y="697.5"/><ellipse cx="1108.8" cy="713.5" fill="#ADD1B2" rx="11" ry="11" style="stroke:#A80036;stroke-width:1.0;"/><path d="M1111.5656,709.375 Q1111.7219,709.1563 1111.9094,709.0469 Q1112.0969,708.9375 1112.3156,708.9375 Q1112.6906,708.9375 1112.925,709.1953 Q1113.1594,709.4531 1113.1594,710.0625 L1113.1594,711.5156 Q1113.1594,712.125 1112.925,712.3906 Q1112.6906,712.6563 1112.3156,712.6563 Q1111.9719,712.6563 1111.7688,712.4531 Q1111.5656,712.2656 1111.4563,711.75 Q1111.4094,711.3906 1111.2219,711.2031 Q1110.8938,710.8281 1110.2844,710.6094 Q1109.675,710.3906 1109.05,710.3906 Q1108.2844,710.3906 1107.6516,710.7188 Q1107.0188,711.0469 1106.5266,711.7969 Q1106.0344,712.5469 1106.0344,713.5781 L1106.0344,714.6719 Q1106.0344,715.9063 1106.925,716.7266 Q1107.8156,717.5469 1109.4094,717.5469 Q1110.3469,717.5469 1111.0031,717.2969 Q1111.3938,717.1406 1111.8156,716.7031 Q1112.0813,716.4375 1112.2297,716.3594 Q1112.3781,716.2813 1112.5813,716.2813 Q1112.9094,716.2813 1113.1672,716.5391 Q1113.425,716.7969 1113.425,717.1406 Q1113.425,717.4844 1113.0813,717.8906 Q1112.5813,718.4688 1111.7844,718.7969 Q1110.7063,719.25 1109.4094,719.25 Q1107.8938,719.25 1106.6906,718.625 Q1105.7063,718.125 1105.0188,717.0547 Q1104.3313,715.9844 1104.3313,714.7031 L1104.3313,713.5469 Q1104.3313,712.2188 1104.9484,711.0703 Q1105.5656,709.9219 1106.6594,709.3047 Q1107.7531,708.6875 1108.9875,708.6875 Q1109.7219,708.6875 1110.3703,708.8516 Q1111.0188,709.0156 1111.5656,709.375 Z " fill="#000000"/><text fill="#000000" font-family="sans-serif" font-size="12" lengthAdjust="spacing" textLength="118" x="1126.2" y="718.4102">ElementDeFormation</text><line style="stroke:#A80036;stroke-width:1.5;" x1="1079.5" x2="1261.5" y1="729.5" y2="729.5"/><text fill="#000000" font-family="sans-serif" font-size="11" lengthAdjust="spacing" textLength="147" x="1084.5" y="744.9189">MLR_String ModalitéDÉvalution</text><text fill="#000000" font-family="sans-serif" font-size="11" lengthAdjust="spacing" textLength="171" x="1084.5" y="758.7549">ElementDeFormation SeComposeDe</text><text fill="#000000" font-family="sans-serif" font-size="11" lengthAdjust="spacing" textLength="172" x="1084.5" y="772.5908">ActivitePedagogique SeComposeDe</text><line style="stroke:#A80036;stroke-width:1.5;" x1="1079.5" x2="1261.5" y1="779.0078" y2="779.0078"/><!--MD5=[a5a36f74c48cb0d87fa6ae27b291c0e8]
class ActivitePedagogique--><rect codeLine="138" fill="#FEFECE" filter="url(#fn7vq4wfr60ft)" height="75.6719" id="ActivitePedagogique" style="stroke:#A80036;stroke-width:1.5;" width="174" x="491.5" y="704.5"/><ellipse cx="520.45" cy="720.5" fill="#ADD1B2" rx="11" ry="11" style="stroke:#A80036;stroke-width:1.0;"/><path d="M523.2156,716.375 Q523.3719,716.1563 523.5594,716.0469 Q523.7469,715.9375 523.9656,715.9375 Q524.3406,715.9375 524.575,716.1953 Q524.8094,716.4531 524.8094,717.0625 L524.8094,718.5156 Q524.8094,719.125 524.575,719.3906 Q524.3406,719.6563 523.9656,719.6563 Q523.6219,719.6563 523.4188,719.4531 Q523.2156,719.2656 523.1063,718.75 Q523.0594,718.3906 522.8719,718.2031 Q522.5438,717.8281 521.9344,717.6094 Q521.325,717.3906 520.7,717.3906 Q519.9344,717.3906 519.3016,717.7188 Q518.6688,718.0469 518.1766,718.7969 Q517.6844,719.5469 517.6844,720.5781 L517.6844,721.6719 Q517.6844,722.9063 518.575,723.7266 Q519.4656,724.5469 521.0594,724.5469 Q521.9969,724.5469 522.6531,724.2969 Q523.0438,724.1406 523.4656,723.7031 Q523.7313,723.4375 523.8797,723.3594 Q524.0281,723.2813 524.2313,723.2813 Q524.5594,723.2813 524.8172,723.5391 Q525.075,723.7969 525.075,724.1406 Q525.075,724.4844 524.7313,724.8906 Q524.2313,725.4688 523.4344,725.7969 Q522.3563,726.25 521.0594,726.25 Q519.5438,726.25 518.3406,725.625 Q517.3563,725.125 516.6688,724.0547 Q515.9813,722.9844 515.9813,721.7031 L515.9813,720.5469 Q515.9813,719.2188 516.5984,718.0703 Q517.2156,716.9219 518.3094,716.3047 Q519.4031,715.6875 520.6375,715.6875 Q521.3719,715.6875 522.0203,715.8516 Q522.6688,716.0156 523.2156,716.375 Z " fill="#000000"/><text fill="#000000" font-family="sans-serif" font-size="12" lengthAdjust="spacing" textLength="111" x="537.55" y="725.4102">ActivitePedagogique</text><line style="stroke:#A80036;stroke-width:1.5;" x1="492.5" x2="664.5" y1="736.5" y2="736.5"/><text fill="#000000" font-family="sans-serif" font-size="11" lengthAdjust="spacing" textLength="128" x="497.5" y="751.9189">Vocabulaire TypeDActivité</text><text fill="#000000" font-family="sans-serif" font-size="11" lengthAdjust="spacing" textLength="162" x="497.5" y="765.7549">Vocabulaire ModalitéPédagogique</text><line style="stroke:#A80036;stroke-width:1.5;" x1="492.5" x2="664.5" y1="772.1719" y2="772.1719"/><!--MD5=[4787a8a8ae0e859a4b4cf37d0b629b60]
class Réalisation--><rect codeLine="143" fill="#FEFECE" filter="url(#fn7vq4wfr60ft)" height="172.5234" id="Réalisation" style="stroke:#A80036;stroke-width:1.5;" width="243" x="1983" y="184"/><ellipse cx="2069.25" cy="200" fill="#A9DCDF" rx="11" ry="11" style="stroke:#A80036;stroke-width:1.0;"/><path d="M2071.4375,201.7656 L2067.2969,201.7656 L2066.875,202.7969 L2067.2969,202.7969 Q2067.9063,202.7969 2068.1719,203.0313 Q2068.4375,203.2656 2068.4375,203.6563 Q2068.4375,204.0313 2068.1719,204.2656 Q2067.9063,204.5 2067.2969,204.5 L2065,204.5 Q2064.3906,204.5 2064.1328,204.2656 Q2063.875,204.0313 2063.875,203.6406 Q2063.875,203.2656 2064.1484,203.0234 Q2064.4219,202.7813 2065.0469,202.7969 L2067.7188,196.1406 L2066.6094,196.1406 Q2066,196.1406 2065.7344,195.9063 Q2065.4688,195.6719 2065.4688,195.2813 Q2065.4688,194.9063 2065.7344,194.6719 Q2066,194.4375 2066.6094,194.4375 L2070.2813,194.4375 L2073.6719,202.7969 Q2074.2656,202.7969 2074.4531,202.9375 Q2074.8438,203.2031 2074.8438,203.6563 Q2074.8438,204.0313 2074.5859,204.2656 Q2074.3281,204.5 2073.7188,204.5 L2071.4219,204.5 Q2070.8125,204.5 2070.5469,204.2656 Q2070.2813,204.0313 2070.2813,203.6406 Q2070.2813,203.2656 2070.5469,203.0313 Q2070.8125,202.7969 2071.4219,202.7969 L2071.8438,202.7969 L2071.4375,201.7656 Z M2070.7188,200.0625 L2069.3594,196.6875 L2067.9844,200.0625 L2070.7188,200.0625 Z " fill="#000000"/><text fill="#000000" font-family="sans-serif" font-size="12" font-style="italic" lengthAdjust="spacing" textLength="62" x="2089.75" y="204.9102">Réalisation</text><line style="stroke:#A80036;stroke-width:1.5;" x1="1984" x2="2225" y1="216" y2="216"/><text fill="#000000" font-family="sans-serif" font-size="11" lengthAdjust="spacing" textLength="80" x="1989" y="231.4189">MLR_Date Début</text><text fill="#000000" font-family="sans-serif" font-size="11" lengthAdjust="spacing" textLength="66" x="1989" y="245.2549">MLR_Date Fin</text><text fill="#000000" font-family="sans-serif" font-size="11" lengthAdjust="spacing" textLength="78" x="1989" y="259.0908">MLR_String Lieu</text><text fill="#000000" font-family="sans-serif" font-size="11" lengthAdjust="spacing" textLength="226" x="1989" y="272.9268">ISO_IEC_19788_1_2010_RC0003 Responsable</text><text fill="#000000" font-family="sans-serif" font-size="11" lengthAdjust="spacing" textLength="217" x="1989" y="286.7627">ISO_IEC_19788_1_2010_RC0003 Intervenant</text><text fill="#000000" font-family="sans-serif" font-size="11" lengthAdjust="spacing" textLength="158" x="1989" y="300.5986">Booléen EntreeSortiePermanente</text><text fill="#000000" font-family="sans-serif" font-size="11" lengthAdjust="spacing" textLength="231" x="1989" y="314.4346">ISO_IEC_22602_RC0001 EstMiseEnOeuvreDans</text><text fill="#000000" font-family="sans-serif" font-size="11" lengthAdjust="spacing" textLength="201" x="1989" y="328.2705">SessionDInformation SessionDinformation</text><text fill="#000000" font-family="sans-serif" font-size="11" lengthAdjust="spacing" textLength="197" x="1989" y="342.1064">PeriodeDInterruption PeriodeDInterruption</text><line style="stroke:#A80036;stroke-width:1.5;" x1="1984" x2="2225" y1="348.5234" y2="348.5234"/><!--MD5=[6bc887e80bd36c99ef031e3d79f28024]
class RéalisationDeParcours--><rect codeLine="155" fill="#FEFECE" filter="url(#fn7vq4wfr60ft)" height="61.8359" id="RéalisationDeParcours" style="stroke:#A80036;stroke-width:1.5;" width="161" x="2356" y="479"/><ellipse cx="2371" cy="495" fill="#ADD1B2" rx="11" ry="11" style="stroke:#A80036;stroke-width:1.0;"/><path d="M2373.7656,490.875 Q2373.9219,490.6563 2374.1094,490.5469 Q2374.2969,490.4375 2374.5156,490.4375 Q2374.8906,490.4375 2375.125,490.6953 Q2375.3594,490.9531 2375.3594,491.5625 L2375.3594,493.0156 Q2375.3594,493.625 2375.125,493.8906 Q2374.8906,494.1563 2374.5156,494.1563 Q2374.1719,494.1563 2373.9688,493.9531 Q2373.7656,493.7656 2373.6563,493.25 Q2373.6094,492.8906 2373.4219,492.7031 Q2373.0938,492.3281 2372.4844,492.1094 Q2371.875,491.8906 2371.25,491.8906 Q2370.4844,491.8906 2369.8516,492.2188 Q2369.2188,492.5469 2368.7266,493.2969 Q2368.2344,494.0469 2368.2344,495.0781 L2368.2344,496.1719 Q2368.2344,497.4063 2369.125,498.2266 Q2370.0156,499.0469 2371.6094,499.0469 Q2372.5469,499.0469 2373.2031,498.7969 Q2373.5938,498.6406 2374.0156,498.2031 Q2374.2813,497.9375 2374.4297,497.8594 Q2374.5781,497.7813 2374.7813,497.7813 Q2375.1094,497.7813 2375.3672,498.0391 Q2375.625,498.2969 2375.625,498.6406 Q2375.625,498.9844 2375.2813,499.3906 Q2374.7813,499.9688 2373.9844,500.2969 Q2372.9063,500.75 2371.6094,500.75 Q2370.0938,500.75 2368.8906,500.125 Q2367.9063,499.625 2367.2188,498.5547 Q2366.5313,497.4844 2366.5313,496.2031 L2366.5313,495.0469 Q2366.5313,493.7188 2367.1484,492.5703 Q2367.7656,491.4219 2368.8594,490.8047 Q2369.9531,490.1875 2371.1875,490.1875 Q2371.9219,490.1875 2372.5703,490.3516 Q2373.2188,490.5156 2373.7656,490.875 Z " fill="#000000"/><text fill="#000000" font-family="sans-serif" font-size="12" lengthAdjust="spacing" textLength="129" x="2385" y="499.9102">RéalisationDeParcours</text><line style="stroke:#A80036;stroke-width:1.5;" x1="2357" x2="2516" y1="511" y2="511"/><text fill="#000000" font-family="sans-serif" font-size="11" lengthAdjust="spacing" textLength="129" x="2362" y="526.4189">ActionDeFormation Réalise</text><line style="stroke:#A80036;stroke-width:1.5;" x1="2357" x2="2516" y1="532.8359" y2="532.8359"/><!--MD5=[ad70b37731c1e399be32f0d9cfbc10e0]
class RéalisationDeModule--><rect codeLine="159" fill="#FEFECE" filter="url(#fn7vq4wfr60ft)" height="61.8359" id="RéalisationDeModule" style="stroke:#A80036;stroke-width:1.5;" width="151" x="1734" y="479"/><ellipse cx="1749" cy="495" fill="#ADD1B2" rx="11" ry="11" style="stroke:#A80036;stroke-width:1.0;"/><path d="M1751.7656,490.875 Q1751.9219,490.6563 1752.1094,490.5469 Q1752.2969,490.4375 1752.5156,490.4375 Q1752.8906,490.4375 1753.125,490.6953 Q1753.3594,490.9531 1753.3594,491.5625 L1753.3594,493.0156 Q1753.3594,493.625 1753.125,493.8906 Q1752.8906,494.1563 1752.5156,494.1563 Q1752.1719,494.1563 1751.9688,493.9531 Q1751.7656,493.7656 1751.6563,493.25 Q1751.6094,492.8906 1751.4219,492.7031 Q1751.0938,492.3281 1750.4844,492.1094 Q1749.875,491.8906 1749.25,491.8906 Q1748.4844,491.8906 1747.8516,492.2188 Q1747.2188,492.5469 1746.7266,493.2969 Q1746.2344,494.0469 1746.2344,495.0781 L1746.2344,496.1719 Q1746.2344,497.4063 1747.125,498.2266 Q1748.0156,499.0469 1749.6094,499.0469 Q1750.5469,499.0469 1751.2031,498.7969 Q1751.5938,498.6406 1752.0156,498.2031 Q1752.2813,497.9375 1752.4297,497.8594 Q1752.5781,497.7813 1752.7813,497.7813 Q1753.1094,497.7813 1753.3672,498.0391 Q1753.625,498.2969 1753.625,498.6406 Q1753.625,498.9844 1753.2813,499.3906 Q1752.7813,499.9688 1751.9844,500.2969 Q1750.9063,500.75 1749.6094,500.75 Q1748.0938,500.75 1746.8906,500.125 Q1745.9063,499.625 1745.2188,498.5547 Q1744.5313,497.4844 1744.5313,496.2031 L1744.5313,495.0469 Q1744.5313,493.7188 1745.1484,492.5703 Q1745.7656,491.4219 1746.8594,490.8047 Q1747.9531,490.1875 1749.1875,490.1875 Q1749.9219,490.1875 1750.5703,490.3516 Q1751.2188,490.5156 1751.7656,490.875 Z " fill="#000000"/><text fill="#000000" font-family="sans-serif" font-size="12" lengthAdjust="spacing" textLength="119" x="1763" y="499.9102">RéalisationDeModule</text><line style="stroke:#A80036;stroke-width:1.5;" x1="1735" x2="1884" y1="511" y2="511"/><text fill="#000000" font-family="sans-serif" font-size="11" lengthAdjust="spacing" textLength="72" x="1740" y="526.4189">Module Réalise</text><line style="stroke:#A80036;stroke-width:1.5;" x1="1735" x2="1884" y1="532.8359" y2="532.8359"/><!--MD5=[3a4831f61f54e710652b38a24d380cb6]
class SessionDeFormation--><rect codeLine="163" fill="#FEFECE" filter="url(#fn7vq4wfr60ft)" height="61.8359" id="SessionDeFormation" style="stroke:#A80036;stroke-width:1.5;" width="150" x="1920.5" y="479"/><ellipse cx="1935.5" cy="495" fill="#ADD1B2" rx="11" ry="11" style="stroke:#A80036;stroke-width:1.0;"/><path d="M1938.2656,490.875 Q1938.4219,490.6563 1938.6094,490.5469 Q1938.7969,490.4375 1939.0156,490.4375 Q1939.3906,490.4375 1939.625,490.6953 Q1939.8594,490.9531 1939.8594,491.5625 L1939.8594,493.0156 Q1939.8594,493.625 1939.625,493.8906 Q1939.3906,494.1563 1939.0156,494.1563 Q1938.6719,494.1563 1938.4688,493.9531 Q1938.2656,493.7656 1938.1563,493.25 Q1938.1094,492.8906 1937.9219,492.7031 Q1937.5938,492.3281 1936.9844,492.1094 Q1936.375,491.8906 1935.75,491.8906 Q1934.9844,491.8906 1934.3516,492.2188 Q1933.7188,492.5469 1933.2266,493.2969 Q1932.7344,494.0469 1932.7344,495.0781 L1932.7344,496.1719 Q1932.7344,497.4063 1933.625,498.2266 Q1934.5156,499.0469 1936.1094,499.0469 Q1937.0469,499.0469 1937.7031,498.7969 Q1938.0938,498.6406 1938.5156,498.2031 Q1938.7813,497.9375 1938.9297,497.8594 Q1939.0781,497.7813 1939.2813,497.7813 Q1939.6094,497.7813 1939.8672,498.0391 Q1940.125,498.2969 1940.125,498.6406 Q1940.125,498.9844 1939.7813,499.3906 Q1939.2813,499.9688 1938.4844,500.2969 Q1937.4063,500.75 1936.1094,500.75 Q1934.5938,500.75 1933.3906,500.125 Q1932.4063,499.625 1931.7188,498.5547 Q1931.0313,497.4844 1931.0313,496.2031 L1931.0313,495.0469 Q1931.0313,493.7188 1931.6484,492.5703 Q1932.2656,491.4219 1933.3594,490.8047 Q1934.4531,490.1875 1935.6875,490.1875 Q1936.4219,490.1875 1937.0703,490.3516 Q1937.7188,490.5156 1938.2656,490.875 Z " fill="#000000"/><text fill="#000000" font-family="sans-serif" font-size="12" lengthAdjust="spacing" textLength="118" x="1949.5" y="499.9102">SessionDeFormation</text><line style="stroke:#A80036;stroke-width:1.5;" x1="1921.5" x2="2069.5" y1="511" y2="511"/><text fill="#000000" font-family="sans-serif" font-size="11" lengthAdjust="spacing" textLength="135" x="1926.5" y="526.4189">ElementDeFormation Réalise</text><line style="stroke:#A80036;stroke-width:1.5;" x1="1921.5" x2="2069.5" y1="532.8359" y2="532.8359"/><!--MD5=[c6262f5e1ae4f4cd59a3923f7bdffae9]
class RéalisationDActivitéPédagogique--><rect codeLine="167" fill="#FEFECE" filter="url(#fn7vq4wfr60ft)" height="61.8359" id="RéalisationDActivitéPédagogique" style="stroke:#A80036;stroke-width:1.5;" width="215" x="2106" y="479"/><ellipse cx="2121" cy="495" fill="#ADD1B2" rx="11" ry="11" style="stroke:#A80036;stroke-width:1.0;"/><path d="M2123.7656,490.875 Q2123.9219,490.6563 2124.1094,490.5469 Q2124.2969,490.4375 2124.5156,490.4375 Q2124.8906,490.4375 2125.125,490.6953 Q2125.3594,490.9531 2125.3594,491.5625 L2125.3594,493.0156 Q2125.3594,493.625 2125.125,493.8906 Q2124.8906,494.1563 2124.5156,494.1563 Q2124.1719,494.1563 2123.9688,493.9531 Q2123.7656,493.7656 2123.6563,493.25 Q2123.6094,492.8906 2123.4219,492.7031 Q2123.0938,492.3281 2122.4844,492.1094 Q2121.875,491.8906 2121.25,491.8906 Q2120.4844,491.8906 2119.8516,492.2188 Q2119.2188,492.5469 2118.7266,493.2969 Q2118.2344,494.0469 2118.2344,495.0781 L2118.2344,496.1719 Q2118.2344,497.4063 2119.125,498.2266 Q2120.0156,499.0469 2121.6094,499.0469 Q2122.5469,499.0469 2123.2031,498.7969 Q2123.5938,498.6406 2124.0156,498.2031 Q2124.2813,497.9375 2124.4297,497.8594 Q2124.5781,497.7813 2124.7813,497.7813 Q2125.1094,497.7813 2125.3672,498.0391 Q2125.625,498.2969 2125.625,498.6406 Q2125.625,498.9844 2125.2813,499.3906 Q2124.7813,499.9688 2123.9844,500.2969 Q2122.9063,500.75 2121.6094,500.75 Q2120.0938,500.75 2118.8906,500.125 Q2117.9063,499.625 2117.2188,498.5547 Q2116.5313,497.4844 2116.5313,496.2031 L2116.5313,495.0469 Q2116.5313,493.7188 2117.1484,492.5703 Q2117.7656,491.4219 2118.8594,490.8047 Q2119.9531,490.1875 2121.1875,490.1875 Q2121.9219,490.1875 2122.5703,490.3516 Q2123.2188,490.5156 2123.7656,490.875 Z " fill="#000000"/><text fill="#000000" font-family="sans-serif" font-size="12" lengthAdjust="spacing" textLength="183" x="2135" y="499.9102">RéalisationDActivitéPédagogique</text><line style="stroke:#A80036;stroke-width:1.5;" x1="2107" x2="2320" y1="511" y2="511"/><text fill="#000000" font-family="sans-serif" font-size="11" lengthAdjust="spacing" textLength="195" x="2112" y="526.4189">RéalisationDActivitéPédagogique Réalise</text><line style="stroke:#A80036;stroke-width:1.5;" x1="2107" x2="2320" y1="532.8359" y2="532.8359"/><!--MD5=[aac892a550953fe0d8032e4cf05ec67a]
reverse link EntitéDuMondeDeLaFormation to CertificatBadgeDiplome--><path codeLine="171" d="M1000.21,74.39 C786.76,89.56 353.32,126.47 213.5,184 C189.86,193.73 166.86,209.76 147.91,225.33 " fill="none" id="EntitéDuMondeDeLaFormation-backto-CertificatBadgeDiplome" style="stroke:#A80036;stroke-width:1.0;"/><polygon fill="none" points="999.72,67.41,1020.16,72.99,1000.7,81.37,999.72,67.41" style="stroke:#A80036;stroke-width:1.0;"/><!--MD5=[5c74748d8690a44d2556d31b5f2e7b75]
reverse link EntitéDuMondeDeLaFormation to Certification--><path codeLine="172" d="M999.94,66.86 C853.67,71.65 603.77,93.91 411.5,184 C387.03,195.47 363.92,214.75 346.19,232.1 " fill="none" id="EntitéDuMondeDeLaFormation-backto-Certification" style="stroke:#A80036;stroke-width:1.0;"/><polygon fill="none" points="1000.12,59.86,1020.31,66.29,1000.52,73.85,1000.12,59.86" style="stroke:#A80036;stroke-width:1.0;"/><!--MD5=[e8081e4acfc3a82ac7b6389556d2f638]
reverse link EntitéDuMondeDeLaFormation to NiveauDeCertification--><path codeLine="173" d="M1000.41,75.72 C890.08,88.16 725.33,117.12 597.5,184 C574.57,196 553.02,215.1 536.45,232.21 " fill="none" id="EntitéDuMondeDeLaFormation-backto-NiveauDeCertification" style="stroke:#A80036;stroke-width:1.0;"/><polygon fill="none" points="999.73,68.75,1020.36,73.58,1001.22,82.67,999.73,68.75" style="stroke:#A80036;stroke-width:1.0;"/><!--MD5=[e2a65838a1a2b295c9664208e722b5d2]
reverse link EntitéDuMondeDeLaFormation to ConditionDAccès--><path codeLine="174" d="M1000.78,93.54 C931.58,112.36 844.96,141.76 775.5,184 C754.26,196.91 734,215.68 718.19,232.34 " fill="none" id="EntitéDuMondeDeLaFormation-backto-ConditionDAccès" style="stroke:#A80036;stroke-width:1.0;"/><polygon fill="none" points="999.14,86.73,1020.27,88.39,1002.72,100.27,999.14,86.73" style="stroke:#A80036;stroke-width:1.0;"/><!--MD5=[68cbe4aa45ddc62ec416a064a138f724]
reverse link EntitéDuMondeDeLaFormation to Prérequis--><path codeLine="175" d="M1121.5,137.51 C1121.5,172.35 1121.5,212.48 1121.5,239.26 " fill="none" id="EntitéDuMondeDeLaFormation-backto-Prérequis" style="stroke:#A80036;stroke-width:1.0;"/><polygon fill="none" points="1114.5,137.2,1121.5,117.2,1128.5,137.2,1114.5,137.2" style="stroke:#A80036;stroke-width:1.0;"/><!--MD5=[84b723a2505feb179bef02100a69c55d]
reverse link EntitéDuMondeDeLaFormation to ModalitéDeSélection--><path codeLine="176" d="M1176.88,132.63 C1206.96,168.55 1242.7,211.22 1266.17,239.26 " fill="none" id="EntitéDuMondeDeLaFormation-backto-ModalitéDeSélection" style="stroke:#A80036;stroke-width:1.0;"/><polygon fill="none" points="1171.43,137.03,1163.96,117.2,1182.17,128.04,1171.43,137.03" style="stroke:#A80036;stroke-width:1.0;"/><!--MD5=[1aa4c4fc877408e28a4573e210d3192b]
reverse link EntitéDuMondeDeLaFormation to CaractéristiqueDelaFormation--><path codeLine="177" d="M1053.63,131.18 C1036.04,147.95 1016.81,166.28 998.28,183.94 " fill="none" id="EntitéDuMondeDeLaFormation-backto-CaractéristiqueDelaFormation" style="stroke:#A80036;stroke-width:1.0;"/><polygon fill="none" points="1048.99,125.93,1068.3,117.2,1058.65,136.07,1048.99,125.93" style="stroke:#A80036;stroke-width:1.0;"/><!--MD5=[ec3d97734d0fadfd1f522065fa125580]
reverse link EntitéDuMondeDeLaFormation to CreditsECTS--><path codeLine="178" d="M1241.46,112.29 C1286.82,131.74 1337.96,156.34 1381.5,184 C1403.29,197.84 1425.32,216.12 1443.15,232.22 " fill="none" id="EntitéDuMondeDeLaFormation-backto-CreditsECTS" style="stroke:#A80036;stroke-width:1.0;"/><polygon fill="none" points="1238.47,118.62,1222.75,104.41,1243.9,105.72,1238.47,118.62" style="stroke:#A80036;stroke-width:1.0;"/><!--MD5=[6961ca1bc2adf09a49bdc7a8c4a480c9]
reverse link EntitéDuMondeDeLaFormation to SessionDInformation--><path codeLine="179" d="M1242.48,82.11 C1338.48,98.03 1473.96,128.52 1581.5,184 C1602.12,194.64 1622.19,210.19 1638.94,225.12 " fill="none" id="EntitéDuMondeDeLaFormation-backto-SessionDInformation" style="stroke:#A80036;stroke-width:1.0;"/><polygon fill="none" points="1241.26,89.01,1222.62,78.94,1243.47,75.18,1241.26,89.01" style="stroke:#A80036;stroke-width:1.0;"/><!--MD5=[a90195c5430f0a325e6cfa5c075f01f6]
reverse link EntitéDuMondeDeLaFormation to PeriodeDInterruption--><path codeLine="180" d="M1242.77,67.54 C1380.68,73.23 1609.28,96.6 1783.5,184 C1803.46,194.01 1822.09,209.81 1837.23,225.11 " fill="none" id="EntitéDuMondeDeLaFormation-backto-PeriodeDInterruption" style="stroke:#A80036;stroke-width:1.0;"/><polygon fill="none" points="1242.41,74.53,1222.68,66.81,1242.92,60.54,1242.41,74.53" style="stroke:#A80036;stroke-width:1.0;"/><!--MD5=[a914c4a7262c323e84c62bd16a5dca56]
reverse link EntitéDuMondeDeLaFormation to Réalisation--><path codeLine="181" d="M1242.79,68.02 C1409.95,73.52 1718.39,96.01 1964.5,184 C1970.53,186.16 1976.59,188.6 1982.61,191.25 " fill="none" id="EntitéDuMondeDeLaFormation-backto-Réalisation" style="stroke:#A80036;stroke-width:1.0;"/><polygon fill="none" points="1242.41,75.01,1222.63,67.41,1242.83,61.02,1242.41,75.01" style="stroke:#A80036;stroke-width:1.0;"/><!--MD5=[6735da71e0bce1dbd411988b392d4ef0]
reverse link CaractéristiqueDelaFormation to OffreDeFormation--><path codeLine="183" d="M920.95,377.14 C922.52,390.42 924.11,403.92 925.65,416.96 " fill="none" id="CaractéristiqueDelaFormation-backto-OffreDeFormation" style="stroke:#A80036;stroke-width:1.0;"/><polygon fill="none" points="914,377.93,918.61,357.24,927.9,376.29,914,377.93" style="stroke:#A80036;stroke-width:1.0;"/><!--MD5=[18cc2d1e3ef638a5a8798607c9a25089]
reverse link ConditionDAccès to OffreDeFormation--><path codeLine="184" d="M739.5,322.56 C751.33,333.92 763.83,345.88 775.5,357 C796.38,376.88 818.84,398.16 840.17,418.31 " fill="none" id="ConditionDAccès-backto-OffreDeFormation" style="stroke:#A80036;stroke-width:1.0;"/><polygon fill="none" points="734.55,327.51,724.98,308.61,744.25,317.42,734.55,327.51" style="stroke:#A80036;stroke-width:1.0;"/><!--MD5=[4e08a76466824b6e41e31df86b207301]
reverse link CaractéristiqueDelaFormation to Formation--><path codeLine="185" d="M814.56,372 C800.62,386.92 786.3,402.23 772.53,416.96 " fill="none" id="CaractéristiqueDelaFormation-backto-Formation" style="stroke:#A80036;stroke-width:1.0;"/><polygon fill="none" points="809.58,367.07,828.35,357.24,819.81,376.63,809.58,367.07" style="stroke:#A80036;stroke-width:1.0;"/><!--MD5=[a3afaced375fe9a038e79d0ee104dfb6]
reverse link ConditionDAccès to Formation--><path codeLine="186" d="M686.5,328.85 C686.5,355.24 686.5,387.2 686.5,416.84 " fill="none" id="ConditionDAccès-backto-Formation" style="stroke:#A80036;stroke-width:1.0;"/><polygon fill="none" points="679.5,328.61,686.5,308.61,693.5,328.61,679.5,328.61" style="stroke:#A80036;stroke-width:1.0;"/><!--MD5=[9034a4fb8798c1ae180046d6c7070bd2]
reverse link Composition to CompositionObligatoire--><path codeLine="188" d="M2505.61,111.07 C2462.59,152.86 2399.97,213.68 2366.2,246.48 " fill="none" id="Composition-backto-CompositionObligatoire" style="stroke:#A80036;stroke-width:1.0;"/><polygon fill="none" points="2500.99,105.8,2520.21,96.89,2510.74,115.85,2500.99,105.8" style="stroke:#A80036;stroke-width:1.0;"/><!--MD5=[be223dd734fd3e3f612e4502388c0488]
reverse link Composition to CompositionOpérationnelle--><path codeLine="189" d="M2551.5,116.95 C2551.5,158.39 2551.5,215.19 2551.5,246.48 " fill="none" id="Composition-backto-CompositionOpérationnelle" style="stroke:#A80036;stroke-width:1.0;"/><polygon fill="none" points="2544.5,116.89,2551.5,96.89,2558.5,116.89,2544.5,116.89" style="stroke:#A80036;stroke-width:1.0;"/><!--MD5=[34932f16e5ecb2f14b31750446efaad2]
reverse link Composition to CompositionAChoix--><path codeLine="190" d="M2595.39,111.5 C2630.82,147.82 2680.05,198.3 2713.26,232.35 " fill="none" id="Composition-backto-CompositionAChoix" style="stroke:#A80036;stroke-width:1.0;"/><polygon fill="none" points="2590.1,116.1,2581.14,96.89,2600.12,106.32,2590.1,116.1" style="stroke:#A80036;stroke-width:1.0;"/><!--MD5=[9b16d2094d503a030214ae08b309ba85]
reverse link Formation to Parcours--><path codeLine="192" d="M738.3,621.56 C750.89,648.42 763.63,675.61 773.79,697.3 " fill="none" id="Formation-backto-Parcours" style="stroke:#A80036;stroke-width:1.0;"/><polygon fill="none" points="731.8,624.17,729.65,603.09,744.47,618.23,731.8,624.17" style="stroke:#A80036;stroke-width:1.0;"/><!--MD5=[27a956dafe3553d08f9fd40e1ff21016]
reverse link Formation to Module--><path codeLine="193" d="M822.29,603.82 C861.76,631.09 896.69,655.62 905.5,663 C918.01,673.49 930.82,685.67 942.34,697.26 " fill="none" id="Formation-backto-Module" style="stroke:#A80036;stroke-width:1.0;"/><polygon fill="none" points="818.27,609.55,805.78,592.44,826.22,598.03,818.27,609.55" style="stroke:#A80036;stroke-width:1.0;"/><!--MD5=[7908535d46c41bc440272b808d7cbf9e]
reverse link Formation to ElementDeFormation--><path codeLine="194" d="M824.13,602.79 C926.56,644.47 966.91,619.69 1060.5,663 C1080.2,672.11 1100.02,684.89 1117.31,697.49 " fill="none" id="Formation-backto-ElementDeFormation" style="stroke:#A80036;stroke-width:1.0;"/><polygon fill="none" points="821.31,609.19,805.7,594.86,826.84,596.33,821.31,609.19" style="stroke:#A80036;stroke-width:1.0;"/><!--MD5=[19861a336c682267c701c2ba69ec9d02]
reverse link Formation to ActivitePedagogique--><path codeLine="195" d="M634.71,621.52 C620.75,651.33 606.59,681.55 595.97,704.21 " fill="none" id="Formation-backto-ActivitePedagogique" style="stroke:#A80036;stroke-width:1.0;"/><polygon fill="none" points="628.53,618.23,643.35,603.09,641.2,624.17,628.53,618.23" style="stroke:#A80036;stroke-width:1.0;"/><!--MD5=[dd44faa196bda655b9621ab1661eeda0]
reverse link Formation to ActionDeFormation--><path codeLine="196" d="M550.74,607.58 C518.91,630.22 485.69,653.86 456.18,674.85 " fill="none" id="Formation-backto-ActionDeFormation" style="stroke:#A80036;stroke-width:1.0;"/><polygon fill="none" points="546.88,601.74,567.23,595.85,555,613.15,546.88,601.74" style="stroke:#A80036;stroke-width:1.0;"/><!--MD5=[678f5c886c63f357c9b22e833eb23a23]
reverse link ConditionDAccès to ActionDeFormation--><path codeLine="197" d="M632.4,322.98 C605.82,349.71 574.27,383.67 549.5,417 C490.75,496.07 436.04,595.2 401.17,662.96 " fill="none" id="ConditionDAccès-backto-ActionDeFormation" style="stroke:#A80036;stroke-width:1.0;"/><polygon fill="none" points="627.84,317.64,646.98,308.54,637.7,327.59,627.84,317.64" style="stroke:#A80036;stroke-width:1.0;"/><!--MD5=[abc9207577b93dbdec59a3e8902b6368]
reverse link Réalisation to RéalisationDeParcours--><path codeLine="199" d="M2243.56,357.22 C2290.93,386.55 2333.38,413.07 2338.5,417 C2363.11,435.91 2388.6,460 2407.42,478.79 " fill="none" id="Réalisation-backto-RéalisationDeParcours" style="stroke:#A80036;stroke-width:1.0;"/><polygon fill="none" points="2239.62,363.01,2226.3,346.53,2246.99,351.11,2239.62,363.01" style="stroke:#A80036;stroke-width:1.0;"/><!--MD5=[dadc818072e57c653a2869634306aeb6]
reverse link Réalisation to RéalisationDeModule--><path codeLine="200" d="M1966.54,366.47 C1944.68,382.77 1922.65,399.96 1902.5,417 C1879.61,436.36 1855.6,460.22 1837.71,478.78 " fill="none" id="Réalisation-backto-RéalisationDeModule" style="stroke:#A80036;stroke-width:1.0;"/><polygon fill="none" points="1962.55,360.72,1982.8,354.49,1970.85,371.99,1962.55,360.72" style="stroke:#A80036;stroke-width:1.0;"/><!--MD5=[774c556075a8f308bcf4f4365cd7fcb7]
reverse link Réalisation to SessionDeFormation--><path codeLine="201" d="M2056.78,375.48 C2039.52,413.09 2021.34,452.7 2009.3,478.92 " fill="none" id="Réalisation-backto-SessionDeFormation" style="stroke:#A80036;stroke-width:1.0;"/><polygon fill="none" points="2050.44,372.5,2065.15,357.24,2063.17,378.34,2050.44,372.5" style="stroke:#A80036;stroke-width:1.0;"/><!--MD5=[d5f8d54591df0b588387551185b4fcef]
reverse link Réalisation to RéalisationDActivitéPédagogique--><path codeLine="202" d="M2152.22,375.48 C2169.48,413.09 2187.66,452.7 2199.7,478.92 " fill="none" id="Réalisation-backto-RéalisationDActivitéPédagogique" style="stroke:#A80036;stroke-width:1.0;"/><polygon fill="none" points="2145.83,378.34,2143.85,357.24,2158.56,372.5,2145.83,378.34" style="stroke:#A80036;stroke-width:1.0;"/><!--MD5=[1e8157afa5ab760dc91e61f29160a3a7]
@startuml

abstract class EntitéDuMondeDeLaFormation{
    MLR_String Libellé
    MLR_Date DateMaj
    MLR_String Code
    Object Contributeur
}

class CertificatBadgeDiplome{
    MLR_String Description
    NiveauDeCertification APourNiveau
    Certification EstAutoriseADelivrerPar
}

class Certification{
    MLR_Date DateHabilitation
    MLR_Duration DuréeHabilitation
}

class NiveauDeCertification {
    Nombre_Naturel Valeur
    IRI SystemeDeCodification
}

class OffreDeFormation{
    Vocabulaire Type
    MLR_String Stage
    Vocabulaire MétierVisé
    MLR_String Acronyme
    IRI Ressource
    NiveauDeCertification NiveauDeSortie
    OffreDeFormation SeDéclineEn
    OffreDeFormation AÉvoluéEn
    ConditionDAccès ConditionDAccès
    ActionDeFormation EstMatérialisée
}

class ConditionDAccès {
    Object Prérequis
    Object ModalitéDeSélection
}

class Prérequis {
    MLR_String Description
}

class ModalitéDeSélection {
    MLR_String Description
}

class FraisDeFormation {
    Reel_positif Montant
    ISO_4217 Devise
    Reel_positif TauxTVA
    Vocabulaire Type
    MLR_String Description
}

abstract class CaractéristiqueDelaFormation {
    MLR_String Description
    Vocabulaire Domaine
    MLR_Duration DuréeHorsEntrprise
    MLR_Duration DuréeEnEntrprise
    Période DuréeEnEntrprise
    CreditsECTS CréditsECTS
    ISO_IEC_19788_1_2011__RC0002 ressource
    ISO_IEC_22602_RC0003 APourObjectif
    ISO_IEC_22602_RC0003 APourPrérequis
}

abstract class Composition {
    ElementDeFormation 
}
class CompositionObligatoire {
}
class CompositionOpérationnelle {
}
class CompositionAChoix {
    Float NombreMinimal
    Float NombreMaximal
}
class CreditsECTS {
    Positive_Float NombreDeCrédits
    Formation RelatifA
}

class SessionDInformation {
    MLR_Date Date
    MLR_String Lieu
    Nombre_Naturel NombreMaximal
}

class PeriodeDInterruption {
    MLR_Date Début
    MLR_Date Fin
    MLR_String Commentaire
}

abstract class Formation {
    ISO_639 LangueDEnseignement
    MLR_Duration ChargeDeTravail
    ISO_IEC_19788_1_2010_RC0003 Responsable
    MLR_String ConditionDeValidation
    MLR_String Programme
    IRI ProgrammeRef
    Vocabulaire MaterielPedagogique
    Vocabulaire Financeur
    CertificatBadgeDiplome PermetDObtenir
    FraisDeFormation Tarif
}

class ActionDeFormation {
    Vocabulaire PublicCible
    Vocabulaire Modalité
    Certification EstCertifiéPar
    OffreDeFormation Matérialise 
    ConditionDAccès ConditoinsDAccès
    Parcours SeDéclineEn
    Module SeComposeDe
    Composition Utilise
}

class Parcours {
    ConditionDAccès ConditoinsDAccès
    Module SeComposeDe
    Composition Utilise
}
class Module {
    Module Suivant
    Module SeComposeDe
    Composition Utilise
}
class ElementDeFormation {
    MLR_String ModalitéDÉvalution
    ElementDeFormation SeComposeDe
    ActivitePedagogique SeComposeDe
}
class ActivitePedagogique {
    Vocabulaire TypeDActivité
    Vocabulaire ModalitéPédagogique
}

abstract class Réalisation {
    MLR_Date Début
    MLR_Date Fin
    MLR_String Lieu 
    ISO_IEC_19788_1_2010_RC0003 Responsable
    ISO_IEC_19788_1_2010_RC0003 Intervenant
    Booléen EntreeSortiePermanente
    ISO_IEC_22602_RC0001 EstMiseEnOeuvreDans
    SessionDInformation SessionDinformation
    PeriodeDInterruption PeriodeDInterruption
}

class RéalisationDeParcours {
    ActionDeFormation Réalise
}

class RéalisationDeModule {
    Module Réalise
}

class SessionDeFormation {
    ElementDeFormation Réalise
}

class RéalisationDActivitéPédagogique {
    RéalisationDActivitéPédagogique Réalise
}

EntitéDuMondeDeLaFormation <|- - CertificatBadgeDiplome
EntitéDuMondeDeLaFormation <|- - Certification
EntitéDuMondeDeLaFormation <|- - NiveauDeCertification
EntitéDuMondeDeLaFormation <|- - ConditionDAccès
EntitéDuMondeDeLaFormation <|- - Prérequis
EntitéDuMondeDeLaFormation <|- - ModalitéDeSélection
EntitéDuMondeDeLaFormation <|- - CaractéristiqueDelaFormation
EntitéDuMondeDeLaFormation <|- - CreditsECTS
EntitéDuMondeDeLaFormation <|- - SessionDInformation
EntitéDuMondeDeLaFormation <|- - PeriodeDInterruption
EntitéDuMondeDeLaFormation <|- - Réalisation

CaractéristiqueDelaFormation <|- - OffreDeFormation
ConditionDAccès <|- - OffreDeFormation
CaractéristiqueDelaFormation <|- - Formation
ConditionDAccès <|- - Formation

Composition <|- - CompositionObligatoire
Composition <|- - CompositionOpérationnelle
Composition <|- - CompositionAChoix

Formation <|- - Parcours
Formation <|- - Module
Formation <|- - ElementDeFormation
Formation <|- - ActivitePedagogique
Formation <|- - ActionDeFormation
ConditionDAccès <|- - ActionDeFormation

Réalisation <|- - RéalisationDeParcours
Réalisation <|- - RéalisationDeModule
Réalisation <|- - SessionDeFormation
Réalisation <|- - RéalisationDActivitéPédagogique


@enduml

PlantUML version 1.2021.00(Sun Jan 10 11:25:05 CET 2021)
(GPL source distribution)
Java Runtime: Java(TM) SE Runtime Environment
JVM: Java HotSpot(TM) 64-Bit Server VM
Default Encoding: Cp1252
Language: fr
Country: FR
--></g></svg>